<?xml version="1.0" encoding="UTF-8" standalone="no"?>
<!-- Created with Inkscape (http://www.inkscape.org/) -->

<svg
   width="232.48512mm"
   height="222.51141mm"
   viewBox="0 0 232.48512 222.51141"
   version="1.1"
   id="svg1"
   xml:space="preserve"
   xmlns:inkscape="http://www.inkscape.org/namespaces/inkscape"
   xmlns:sodipodi="http://sodipodi.sourceforge.net/DTD/sodipodi-0.dtd"
   xmlns="http://www.w3.org/2000/svg"
   xmlns:svg="http://www.w3.org/2000/svg"><sodipodi:namedview
     id="namedview1"
     pagecolor="#ffffff"
     bordercolor="#999999"
     borderopacity="1"
     inkscape:showpageshadow="0"
     inkscape:pageopacity="0"
     inkscape:pagecheckerboard="0"
     inkscape:deskcolor="#d1d1d1"
     inkscape:document-units="mm" /><defs
     id="defs1" /><g
     inkscape:label="Layer 1"
     inkscape:groupmode="layer"
     id="layer1"
     transform="translate(-84.196032,-628.05516)"><path
       id="path1-2"
       style="fill:#000000;fill-rule:evenodd;stroke:none;stroke-width:0.999999"
       d="m 198.77305,628.05512 c -0.0654,0 -0.11886,0.0425 -0.11886,0.0946 0,0.0521 -0.19976,0.16235 -0.44441,0.24495 -0.24464,0.0827 -0.55169,0.19553 -0.68213,0.25063 -0.1304,0.055 -1.01151,0.40241 -1.95751,0.77204 -0.946,0.36964 -1.77896,0.73472 -1.85156,0.81132 -0.0725,0.0766 -0.27515,1.42061 -0.4501,2.98638 -0.17504,1.56578 -0.36575,3.22062 -0.42375,3.6773 -0.0581,0.45669 -0.16598,1.364 -0.23978,2.01641 -0.0738,0.65239 -0.18801,1.57263 -0.25321,2.04484 -0.0654,0.47219 -0.0865,0.91072 -0.047,0.97462 0.0395,0.0639 0.41454,0.27959 0.83354,0.47955 0.41891,0.19997 0.79338,0.41424 0.83148,0.47594 0.0381,0.0616 0.065,3.33258 0.061,7.26881 -0.004,3.93622 0.0334,7.19795 0.0837,7.24865 h 5.2e-4 c 0.0503,0.0507 0.27804,0.0593 0.50643,0.0191 0.22832,-0.0402 1.28232,-0.10647 2.34249,-0.14727 l 1.92805,-0.0739 v -14.57224 c 0,-9.63555 -0.0404,-14.57172 -0.11886,-14.57172 z m 3.29127,0.0227 c -0.0489,-0.0234 -0.0889,6.52723 -0.0889,14.55725 v 14.60014 l 1.3348,0.014 c 0.73402,0.008 1.68126,0.0538 2.1053,0.10283 0.42406,0.049 0.90447,0.0839 1.06763,0.0749 l 0.29663,-0.0139 0.0589,-7.29413 0.0594,-7.29413 0.75499,-0.3762 c 0.41533,-0.20702 0.80229,-0.42351 0.85989,-0.48111 0.13674,-0.13671 -1.1911,-11.55363 -1.36529,-11.73882 -0.072,-0.0766 -1.03807,-0.4944 -2.14715,-0.92811 -1.71279,-0.66978 -2.23807,-0.88804 -2.93626,-1.22266 z m -12.83539,13.07517 c -0.0109,-0.001 -0.0223,0.002 -0.0346,0.007 -0.11416,0.045 -1.0028,0.37296 -1.97456,0.72915 -0.97182,0.35617 -1.85574,0.69566 -1.96474,0.75396 -0.15178,0.0812 -0.23323,0.42032 -0.34726,1.44798 -0.0819,0.73807 -0.19582,1.74209 -0.25322,2.23138 -0.0573,0.48932 -0.16021,1.37036 -0.22841,1.95751 -0.1805,1.55374 -1.19217,10.79602 -1.19217,10.89132 0,0.12035 0.11115,0.10695 1.75286,-0.21394 2.19824,-0.42971 2.60231,-0.50566 3.55534,-0.66611 l 0.8599,-0.14469 v -8.53436 c 0,-7.575 -0.01,-8.44376 -0.17312,-8.45892 z m 22.40897,0 c -0.16308,0.0151 -0.1726,0.88392 -0.1726,8.45892 v 8.53436 l 0.85989,0.14624 c 1.26539,0.21544 2.00843,0.35536 3.52899,0.66404 1.56554,0.31785 1.77922,0.33965 1.77922,0.17932 0,-0.15213 -1.4952,-13.71248 -1.67845,-15.22233 -0.11237,-0.92642 -0.18612,-1.18699 -0.36381,-1.28209 -0.12262,-0.0657 -1.00771,-0.40564 -1.9668,-0.75499 -0.95909,-0.34939 -1.83763,-0.67185 -1.95182,-0.71675 -0.0123,-0.005 -0.0238,-0.008 -0.0346,-0.007 z m -11.22671,19.16679 c -5.85357,10e-4 -12.49209,0.82995 -17.59272,2.19676 -0.32622,0.0874 -1.01293,0.27195 -1.52652,0.4098 -1.66677,0.44757 -5.07854,1.62029 -7.25744,2.49442 -16.03073,6.4313 -29.3691,18.84305 -36.96622,34.39893 -0.78687,1.6112 -0.8976,1.85127 -1.68362,3.65353 -1.71989,3.94394 -3.50522,9.9813 -4.35684,14.73243 -2.02361,11.28973 -1.21651,23.33524 2.28875,34.16226 0.45801,1.4146 1.79505,5.03058 2.16266,5.84874 0.15229,0.3388 0.42714,0.96294 0.61081,1.38699 0.54838,1.26547 2.57094,5.18378 3.39825,6.58358 3.34416,5.6579 6.6612,9.95178 11.18226,14.47508 3.98841,3.99037 8.23937,7.35428 13.08912,10.35699 0.54342,0.33646 1.01187,0.61185 1.04077,0.61185 0.0288,0 0.25135,0.12957 0.49454,0.28784 0.94123,0.61253 4.39914,2.38434 6.43268,3.29644 0.2284,0.10242 0.65523,0.29374 0.94878,0.4253 1.20023,0.53789 3.51722,1.42598 5.15989,1.97765 6.0485,2.03139 11.95494,3.17718 18.62367,3.6127 4.26179,0.27833 9.83856,0.0135 14.54072,-0.69039 5.70358,-0.85377 12.4858,-2.78517 17.16019,-4.88704 0.2773,-0.12467 0.75775,-0.34048 1.06764,-0.47904 18.79444,-8.40453 33.30491,-25.1114 38.92992,-44.82311 1.69397,-5.93625 2.48853,-10.90123 2.72438,-17.0217 0.13972,-3.62501 -0.0996,-9.0935 -0.51418,-11.74553 -0.0303,-0.19453 -0.11619,-0.78086 -0.19069,-1.30277 -0.15367,-1.07539 -0.54779,-3.32161 -0.70745,-4.03334 -1.11762,-4.98154 -2.71041,-10.01476 -4.20077,-13.27309 -0.16897,-0.36942 -0.30748,-0.69606 -0.30748,-0.72606 0,-0.15584 -1.86875,-3.90353 -2.70009,-5.41465 -5.55718,-10.10213 -13.60501,-18.76887 -23.27765,-25.06772 -3.01625,-1.96422 -4.03051,-2.53855 -7.53184,-4.26434 -9.6736,-4.76806 -20.11639,-7.18347 -31.04152,-7.18251 z m 1.46761,2.7311 c 1.06007,0.003 2.32075,0.0421 3.12178,0.11472 5.19178,0.47068 8.05822,0.93035 11.56518,1.85518 2.75757,0.72722 6.28696,1.9581 6.28696,2.19263 0,0.0542 -0.22836,0.20301 -0.50747,0.33022 -0.35162,0.16016 -0.56993,0.36145 -0.71003,0.65525 l -0.20205,0.42427 h -1.55547 -1.55494 l -0.96738,-0.69505 c -0.53214,-0.38211 -1.07415,-0.74582 -1.20458,-0.80822 -0.14239,-0.0683 -0.78277,-0.079 -1.60145,-0.0269 -2.28519,0.14529 -3.81889,0.11894 -4.15169,-0.0713 -0.16316,-0.0933 -0.34306,-0.17064 -0.39946,-0.17364 -0.0565,-0.002 -0.0656,0.34282 -0.0202,0.76688 l 0.0827,0.77101 h -0.69815 c -0.57361,0 -0.79926,0.0642 -1.26607,0.36019 l -0.56792,0.36018 -0.56586,-0.4315 c -0.31124,-0.23733 -0.6508,-0.60939 -0.75448,-0.82682 -0.15349,-0.32191 -0.31012,-0.43417 -0.84439,-0.60255 l -0.65629,-0.2067 -0.55759,0.47284 c -0.30682,0.26002 -0.57589,0.52693 -0.59789,0.59273 -0.0611,0.1832 1.08084,0.67584 1.36064,0.58704 0.19846,-0.063 0.35428,0.0842 0.89607,0.84698 1.00005,1.40811 1.79588,2.14473 3.14347,2.9099 0.66066,0.37514 1.27283,0.68213 1.36013,0.68213 0.0872,0 0.26196,-0.0784 0.3886,-0.17415 0.12664,-0.0958 0.45021,-0.1768 0.71882,-0.17777 0.47416,-0.004 0.49512,0.0132 0.73122,0.58136 0.19984,0.48078 0.35601,0.6496 0.87592,0.94775 0.53333,0.30582 0.75856,0.36286 1.4335,0.3638 0.4404,7e-4 0.80047,0.0453 0.80047,0.0987 0,0.0535 -0.21341,0.38299 -0.47439,0.73277 -0.26088,0.34974 -0.47439,0.68377 -0.47439,0.74207 0,0.22837 1.35615,1.62517 1.69137,1.74202 0.33009,0.11507 0.35067,0.15564 0.28577,0.56947 -0.23677,1.51091 -0.2887,1.30347 0.58291,2.34404 1.58718,1.89495 1.45384,1.77972 1.87276,1.61644 0.20411,-0.0796 0.41899,-0.15628 0.47749,-0.16898 0.0585,-0.0133 0.29032,0.42937 0.51521,0.98392 0.22488,0.55453 0.45877,1.0694 0.51987,1.1436 0.0611,0.0743 0.40227,0.17099 0.75809,0.21549 0.35582,0.0444 0.67273,0.1222 0.70383,0.1726 0.0509,0.0822 -0.9465,1.01153 -1.33583,1.24489 -0.0928,0.0556 -0.24544,0.0122 -0.37827,-0.10801 -0.17795,-0.16099 -0.34349,-0.18517 -0.82269,-0.11937 -0.32998,0.0453 -0.62808,0.12783 -0.66198,0.18293 -0.034,0.055 0.086,0.40798 0.26665,0.78497 0.3174,0.66223 0.35078,0.69104 0.98082,0.84749 0.35854,0.0891 0.66941,0.17972 0.69091,0.20102 0.1104,0.11039 -0.43137,1.30185 -0.66094,1.45366 -0.23569,0.15583 -0.26665,0.27622 -0.26665,1.0294 0,0.70198 0.0744,1.03759 0.42117,1.89755 0.23175,0.5747 0.39323,1.07345 0.35863,1.10795 -0.0345,0.0345 -0.57398,-0.41195 -1.19838,-0.99219 -1.76913,-1.64424 -1.58048,-1.54712 -2.23138,-1.15393 -0.53419,0.32258 -0.55294,0.35376 -0.55294,0.89865 0,0.616 -0.12645,0.69061 -0.76171,0.44907 -0.24825,-0.0944 -0.34599,-0.0689 -0.54157,0.14107 -0.1312,0.14087 -0.23875,0.31709 -0.23875,0.39119 0,0.23345 0.5941,0.70497 1.04748,0.83148 l 0.43512,0.12144 0.14263,1.0051 c 0.0783,0.55296 0.20365,1.54958 0.27905,2.21434 l 0.13694,1.20871 0.52038,0.24443 c 0.28603,0.13445 0.62697,0.24443 0.7581,0.24443 0.30227,0 0.29829,0.0931 -0.0558,1.233 -0.16001,0.51521 -0.26593,0.97784 -0.23513,1.02784 0.14921,0.2414 1.33136,0.70435 1.79834,0.70435 0.28072,0 0.51056,0.0413 0.51056,0.0915 0,0.0502 -0.2698,0.30359 -0.59945,0.56327 -0.54658,0.43061 -0.59298,0.50548 -0.52968,0.84956 0.0631,0.34277 0.0397,0.38047 -0.25373,0.41497 -0.29856,0.035 -0.32171,0.0779 -0.31471,0.56069 0.01,0.62325 0.16159,0.76332 1.42782,1.31981 l 0.86765,0.38137 0.58549,-0.24288 c 0.89789,-0.37315 1.71067,-0.0561 1.01854,0.3974 -0.16701,0.10952 -0.30385,0.25799 -0.30385,0.32969 0,0.0718 0.23443,0.37288 0.5209,0.66869 0.50681,0.52347 0.52325,0.56546 0.62735,1.57872 0.0588,0.57263 0.0784,1.0874 0.0429,1.1436 -0.12065,0.19173 -0.92148,0.35079 -1.06144,0.21084 -0.0713,-0.0713 -0.1297,-0.50269 -0.1297,-0.9586 0,-1.14861 -0.23935,-1.48189 -1.54203,-2.14715 -0.6344,-0.324 -1.47791,-0.91466 -2.27479,-1.59267 -0.69656,-0.59268 -1.32283,-1.07746 -1.39113,-1.07746 -0.0685,0 -0.20816,0.12741 -0.31058,0.28371 -0.17546,0.26782 -0.1627,0.33413 0.22944,1.15652 0.33325,0.69892 0.56059,0.99037 1.14309,1.46554 0.39993,0.32621 1.02964,0.70214 1.39888,0.83509 0.65439,0.23558 0.67223,0.25352 0.70693,0.72502 l 0.0357,0.48369 -0.51005,0.0817 c -0.28057,0.045 -0.91053,0.13217 -1.39991,0.19327 -1.52942,0.19121 -1.54203,0.19631 -1.54203,0.65319 0,0.32748 0.0666,0.43739 0.35605,0.58705 0.31402,0.16242 0.35554,0.24547 0.35554,0.709 0,0.50584 -0.0165,0.5296 -0.44494,0.64854 -0.24465,0.0679 -0.50432,0.12366 -0.57722,0.12402 -0.0729,3.6e-4 -0.24331,0.26755 -0.37879,0.59376 -0.2668,0.64182 -0.31972,0.67502 -0.66766,0.41186 -0.12664,-0.0959 -0.30009,-0.17466 -0.38499,-0.17466 -0.085,0 -0.55527,0.80109 -1.04541,1.77973 -0.49006,0.97857 -0.93993,1.77922 -0.99943,1.77922 -0.0595,0 -0.27554,-0.0936 -0.48007,-0.20774 -0.3462,-0.19314 -0.36699,-0.24147 -0.30179,-0.69349 0.11246,-0.77727 -0.40919,-1.01754 -0.81442,-0.37518 -0.0929,0.14728 0.002,0.37499 0.41754,1.00046 0.80831,1.2171 0.82845,1.26675 0.68162,1.68775 -0.12603,0.36171 -0.37613,0.48115 -0.51987,0.24857 -0.15991,-0.25875 -0.38054,-0.0889 -0.68161,0.52503 l -0.31574,0.64389 0.25011,0.31781 c 0.2003,0.25482 0.22786,0.38012 0.13746,0.63148 -0.10903,0.30255 -0.14176,0.31291 -0.96738,0.28991 -0.47006,-0.0131 -0.85449,0.0137 -0.85422,0.0594 2.5e-4,0.0457 0.15875,0.32187 0.35244,0.61391 0.38317,0.57754 0.36016,0.67288 -0.19224,0.78342 -0.33453,0.0669 -0.41074,0.0173 -0.88625,-0.57826 -0.28604,-0.35824 -0.66575,-0.91097 -0.84388,-1.22784 -0.17813,-0.31687 -0.54708,-0.82946 -0.8201,-1.13946 -0.27303,-0.30998 -0.4685,-0.59139 -0.4346,-0.62529 0.034,-0.0339 0.40299,0.0185 0.82011,0.11679 1.05613,0.24897 1.14512,0.23793 1.97714,-0.25424 0.73767,-0.43578 0.73845,-0.43858 0.73845,-0.98651 v -0.54983 l -1.63091,-0.63252 c -1.56158,-0.60583 -1.68906,-0.63498 -2.99516,-0.68678 -0.75027,-0.0298 -1.41426,-0.10125 -1.47536,-0.15865 -0.0676,-0.0635 0.002,-0.22469 0.17828,-0.41186 0.28299,-0.30138 0.28389,-0.31158 0.0584,-0.47646 -0.27329,-0.19983 -0.42278,-0.20697 -1.03094,-0.0496 -1.5299,0.3957 -1.40767,0.32729 -1.40767,0.78962 v 0.42374 l -0.6227,-0.077 -0.6227,-0.077 -0.85318,0.86403 c -0.7347,0.74426 -0.85836,0.93029 -0.88986,1.33894 -0.0322,0.41939 -0.0746,0.47881 -0.36484,0.51211 -0.47604,0.0547 -2.10782,2.50843 -2.32699,3.49901 -0.13998,0.63291 -0.211,0.7367 -0.85318,1.24592 -0.38522,0.3054 -1.40771,0.92877 -2.27273,1.38544 l -1.57303,0.83044 -0.14883,1.60146 c -0.082,0.88074 -0.13545,1.96903 -0.11885,2.41897 0.027,0.72717 0.065,0.84404 0.34158,1.05007 l 0.31161,0.23202 1.21853,-0.79116 c 0.98919,-0.64172 1.24562,-0.76139 1.36064,-0.63459 0.28569,0.31459 0.65345,1.60917 0.65422,2.30322 6e-4,0.49839 0.0684,0.80223 0.23616,1.05575 0.12965,0.19572 0.29611,0.66159 0.37001,1.03559 0.18034,0.91148 0.39748,1.08855 0.76688,0.62529 0.15289,-0.19181 0.47535,-0.40411 0.71675,-0.47181 l 0.43873,-0.1235 0.36639,-1.48002 c 0.3452,-1.39472 0.39006,-1.49534 0.78134,-1.75545 0.55442,-0.36856 0.55844,-0.4365 0.0326,-0.56637 -0.33214,-0.082 -0.45766,-0.17982 -0.48576,-0.37827 -0.0515,-0.36274 0.21386,-0.43862 0.75034,-0.21446 0.59277,0.24769 0.60841,0.24388 0.76378,-0.19999 0.14854,-0.42435 0.0764,-0.52265 -0.69195,-0.94361 l -0.36897,-0.20205 0.003,-1.04335 c 0.002,-0.98965 0.0255,-1.08308 0.45011,-1.81436 0.35291,-0.60795 0.5708,-0.83826 1.03042,-1.0883 0.79487,-0.43244 0.88936,-0.59754 0.88936,-1.55185 0,-1.14052 0.0943,-1.27434 0.89762,-1.27434 0.86964,0 1.47484,0.25437 1.47484,0.62012 0,0.15577 -0.4072,0.84444 -0.93276,1.57768 -1.1503,1.60514 -1.27823,2.02409 -1.07487,3.51245 0.13707,1.00309 0.15524,1.04574 0.52917,1.22318 0.51821,0.24591 0.57665,0.23988 1.72702,-0.17984 0.54829,-0.20002 1.23006,-0.44483 1.51516,-0.54363 l 0.51831,-0.17932 0.40101,0.38861 c 0.4783,0.46351 0.49315,0.61429 0.10956,1.11724 -0.26346,0.34541 -0.38472,0.3959 -1.25368,0.52297 -0.89503,0.13087 -2.01331,0.49878 -2.01331,0.66249 0,0.20882 0.28653,0.54956 0.59686,0.71003 0.2965,0.15333 0.35244,0.25333 0.35244,0.63097 0,0.44763 -0.11392,0.6642 -0.5023,0.95757 -0.1759,0.13286 -0.2597,0.10917 -0.58653,-0.16588 l -0.38137,-0.32091 -0.32918,0.39687 c -0.32153,0.38789 -0.32979,0.43327 -0.33279,1.90583 -0.004,1.70067 0.0488,1.60525 -1.03456,1.8774 -0.59694,0.14998 -0.63078,0.14503 -1.08314,-0.16846 l -0.46664,-0.3235 -1.13895,0.56586 -1.13895,0.56534 -0.66921,-0.32763 c -0.59908,-0.29386 -0.75103,-0.3204 -1.45521,-0.2527 l -0.78599,0.0754 -0.41393,-0.43046 -0.41341,-0.43099 0.28938,-0.73638 c 0.28912,-0.73546 0.36277,-1.66732 0.1602,-2.02934 -0.0804,-0.14378 -0.19021,-0.0997 -0.60203,0.24236 l -0.50333,0.41807 0.001,0.96893 c 10e-4,0.54028 0.0772,1.17872 0.17259,1.44332 0.25722,0.71408 0.22594,0.85721 -0.23822,1.07746 -0.39601,0.18812 -0.4472,0.18767 -0.89091,-0.0124 -0.45184,-0.20374 -0.49885,-0.20409 -1.16943,-10e-4 -0.60763,0.18397 -0.83433,0.34846 -1.74563,1.26401 -1.02015,1.02486 -1.06215,1.05264 -1.60249,1.05264 -0.51657,0 -0.58763,0.0387 -1.02733,0.56328 -0.43908,0.52378 -1.49006,1.22036 -1.83244,1.21336 -0.082,-0.002 -0.30542,-0.21435 -0.49661,-0.47284 -0.19122,-0.25847 -0.37838,-0.43956 -0.41548,-0.40256 -0.0371,0.037 -0.12257,0.26296 -0.19017,0.5023 l -0.12247,0.43511 -1.21957,0.0181 c -0.6709,0.01 -1.24379,0.0413 -1.27279,0.0703 -0.0289,0.029 0.32188,0.38514 0.77928,0.79168 0.82166,0.72981 0.83148,0.74681 0.83148,1.3348 0,0.40184 0.0758,0.70201 0.23306,0.92295 l 0.23306,0.32711 -0.64131,1.27951 c -0.76522,1.52659 -0.80045,1.56885 -1.15703,1.39216 -0.58557,-0.29023 -4.8871,-1.92559 -5.06326,-1.92495 -0.10321,4.2e-4 -0.38118,0.0547 -0.61753,0.12041 -0.42035,0.11676 -0.43162,0.13476 -0.51212,0.84646 -0.0453,0.40009 -0.28516,1.24038 -0.5333,1.86707 -0.39302,0.99269 -0.51517,1.18313 -0.95084,1.48001 -0.40452,0.27569 -0.48538,0.38911 -0.42168,0.59325 0.0433,0.13876 0.10806,0.66287 0.14366,1.16478 0.0765,1.07829 0.31979,1.40296 1.13326,1.51154 0.48143,0.0642 0.51718,0.0981 0.85008,0.80822 l 0.34726,0.74155 h 0.74259 c 0.54059,0 0.99386,0.0965 1.66657,0.35554 0.50835,0.19573 0.96244,0.35605 1.00924,0.35605 0.11587,0 2.36189,-1.30266 2.61328,-1.51567 0.12259,-0.10386 0.21559,-0.38521 0.23719,-0.71727 l 0.0357,-0.54622 1.76992,-1.01234 1.7694,-1.01234 0.18758,-0.59325 c 0.15024,-0.47552 0.27461,-0.63978 0.62684,-0.82837 l 0.43925,-0.23513 1.1746,0.57774 1.17513,0.57826 0.99477,-0.55965 c 1.05178,-0.59148 1.20553,-0.61105 2.04328,-0.26097 0.30861,0.12891 0.50448,0.3524 0.80977,0.92346 0.22146,0.41436 0.74805,1.19397 1.17047,1.73219 0.76711,0.97764 0.76866,0.97875 1.32447,0.97875 h 0.55656 l 0.0367,0.44442 c 0.0348,0.42094 0.0618,0.44816 0.50539,0.50436 0.43157,0.0546 0.50457,0.12058 0.91726,0.83044 0.32473,0.55869 0.44965,0.90956 0.45062,1.27486 0.001,0.27727 0.0358,0.50436 0.077,0.50436 0.0412,0 0.25462,-0.11125 0.47439,-0.24701 0.43216,-0.26709 0.4988,-0.47209 0.22635,-0.69815 -0.32028,-0.26577 -0.34012,-0.59947 -0.0543,-0.90382 0.3068,-0.32652 0.54223,-0.35442 0.87281,-0.10439 0.32427,0.24517 0.4222,0.21773 0.4222,-0.11782 0,-0.24806 -0.16442,-0.37696 -1.09709,-0.85989 -1.0556,-0.54699 -1.09595,-0.58213 -1.06815,-0.94465 0.0261,-0.33997 -0.0146,-0.39073 -0.41548,-0.5178 -0.71847,-0.22776 -0.95686,-0.43554 -1.32344,-1.15445 -0.19069,-0.3738 -0.64454,-0.97148 -1.00872,-1.32808 -0.62128,-0.60822 -0.66198,-0.68357 -0.66198,-1.21595 0,-0.31212 0.0143,-0.56741 0.0315,-0.56741 0.0172,0 0.32132,-0.10604 0.67593,-0.23564 0.70306,-0.25705 0.77959,-0.22494 0.91157,0.38137 0.10628,0.48838 0.35165,0.64404 0.62528,0.39636 0.21497,-0.19449 0.25414,-0.159 1.00304,0.91519 0.68503,0.98256 0.84748,1.14375 1.34566,1.33222 0.37711,0.14263 0.87088,0.50906 1.47536,1.09502 l 0.90847,0.88057 0.14934,1.00149 c 0.14606,0.98222 0.17109,1.03485 1.28571,2.68045 1.05128,1.55211 1.17393,1.68885 1.62988,1.81901 0.27116,0.0776 0.54428,0.1079 0.60668,0.0677 0.13888,-0.0894 0.85783,-1.35347 0.85783,-1.50843 0,-0.0612 -0.34747,-0.50514 -0.77153,-0.98702 -0.66332,-0.75383 -0.77101,-0.94033 -0.77101,-1.33274 0,-0.44907 0.007,-0.45579 0.45268,-0.45579 0.34769,0 0.53114,-0.0825 0.79324,-0.35605 0.31015,-0.32376 0.41018,-0.35553 1.11001,-0.35553 0.55523,0 0.83041,0.0555 0.99012,0.19999 0.20935,0.18952 0.27829,0.17237 1.28467,-0.32091 0.58481,-0.28665 1.06299,-0.56724 1.06299,-0.62374 0,-0.0564 -0.23955,-0.43826 -0.53227,-0.84852 l -0.53227,-0.74621 0.30954,-0.75758 c 0.17017,-0.41694 0.38533,-1.07874 0.47853,-1.47019 0.41592,-1.74907 0.364,-1.65284 1.40715,-2.60243 0.54171,-0.49315 1.03656,-0.89658 1.09916,-0.89658 0.0627,0 0.18018,0.08 0.26148,0.17776 0.0812,0.0978 0.32454,0.17777 0.54105,0.17777 0.49777,0 0.58325,0.13943 0.35502,0.58084 -0.18094,0.34995 -0.18059,0.35118 0.23047,0.48679 0.22644,0.0748 0.51366,0.2654 0.63821,0.42375 0.12459,0.15844 0.27224,0.28797 0.32814,0.28784 0.0558,-1.1e-4 0.42018,-0.28542 0.80977,-0.63407 l 0.70849,-0.63407 -0.6196,-0.40359 c -0.34069,-0.22209 -0.60603,-0.46459 -0.58963,-0.53899 0.0239,-0.10859 1.79129,-1.66036 2.40089,-2.10788 0.22097,-0.16222 0.51839,0.002 0.60099,0.33073 0.0504,0.20077 -0.007,0.40162 -0.185,0.64182 -0.22332,0.30216 -0.23715,0.38322 -0.10335,0.59738 0.13454,0.21556 0.12038,0.28449 -0.10801,0.52762 -0.14458,0.1538 -0.26251,0.33344 -0.26251,0.39894 0,0.0657 0.78691,0.43075 1.74925,0.81132 2.84237,1.12412 2.70785,1.03973 2.97294,1.85828 l 0.22996,0.70952 -0.58859,0.70435 -0.5886,0.70435 -0.73122,0.006 c -0.40208,0.003 -1.22877,0.10269 -1.83761,0.22066 -1.08718,0.21063 -1.1219,0.2101 -1.92185,-0.0233 l -0.81442,-0.23771 -1.34049,0.83199 c -1.71005,1.06111 -1.70913,1.06045 -2.38073,1.16117 -0.40815,0.0612 -0.63941,0.17456 -0.83044,0.40721 -0.5181,0.63129 -1.19453,1.04836 -1.97559,1.2175 -0.975,0.21122 -1.10647,0.40092 -0.6165,0.8909 0.36694,0.36696 0.48005,0.7813 0.25166,0.92243 -0.21106,0.13046 -0.11794,0.34494 0.40205,0.925 0.432,0.48184 0.66323,0.6212 1.5074,0.91054 l 0.99684,0.34158 0.60409,-0.4656 c 0.54317,-0.4189 0.67331,-0.46612 1.29088,-0.46612 0.46885,0 0.80376,0.0722 1.05627,0.22737 l 0.37,0.22738 1.28726,-0.71365 c 1.27225,-0.70502 1.29198,-0.71122 1.71979,-0.5488 l 0.43305,0.16433 0.0341,0.82889 c 0.0411,0.99292 -0.81076,5.2488 -1.09193,5.45548 -0.0938,0.0689 -0.54885,0.25173 -1.0113,0.40617 -0.76378,0.25511 -0.90741,0.26813 -1.57148,0.1447 -0.70615,-0.13133 -0.75134,-0.12388 -1.33274,0.20567 -1.65643,0.93893 -1.397,0.87146 -2.78691,0.72244 -0.69016,-0.074 -1.67719,-0.1848 -2.19315,-0.2465 -0.51598,-0.0616 -1.35465,-0.11214 -1.86397,-0.11214 -0.85519,0 -0.95667,-0.0267 -1.32291,-0.3483 l -0.39636,-0.3483 -0.88264,0.1323 c -0.75428,0.11293 -0.96573,0.20017 -1.45262,0.60151 -0.40501,0.3338 -0.54691,0.52503 -0.49041,0.66094 0.0968,0.23327 0.29305,0.95665 0.32505,1.19786 0.0251,0.18942 -0.92763,0.57021 -1.45935,0.58291 -0.3429,0.008 -3.59604,-1.28934 -3.91345,-1.56114 -0.11716,-0.10036 -0.24931,-0.39473 -0.29301,-0.65371 l -0.0796,-0.47077 -0.91106,-0.14366 c -2.14596,-0.33889 -2.11134,-0.32563 -3.23701,-1.23249 -0.5795,-0.46688 -1.05428,-0.908 -1.05471,-0.9803 -4.2e-4,-0.0722 0.27605,-0.40786 0.61391,-0.74569 l 0.61392,-0.61392 -0.55501,-0.56327 c -0.59858,-0.60776 -0.65087,-0.74298 -0.37672,-0.97048 0.27141,-0.22527 0.21655,-0.35195 -0.23357,-0.54002 -0.53205,-0.22242 -0.82232,-0.21688 -1.33274,0.0253 -0.42883,0.2035 -0.89992,0.17062 -2.94142,-0.20516 -2.78459,-0.51253 -3.30057,-0.55199 -4.6855,-0.35966 -0.48929,0.068 -1.58659,0.21208 -2.43862,0.32039 l -1.54925,0.19689 -1.35703,-0.69763 c -1.1863,-0.60973 -1.36143,-0.73852 -1.39423,-1.02371 -0.0335,-0.29039 -0.0858,-0.32608 -0.478,-0.32608 -0.38455,0 -0.53725,0.0977 -1.20458,0.77101 l -0.7643,0.77101 h -0.84491 -0.84439 l -0.7307,0.76068 -0.73019,0.76068 v 0.78134 c 0,0.42971 -0.0192,0.78135 -0.0429,0.78135 -0.0236,0 -0.69833,0.13349 -1.49914,0.29662 -1.75811,0.35798 -1.92038,0.36206 -2.1947,0.0589 -0.30364,-0.33551 -0.40301,-0.30459 -0.95498,0.29662 -0.44192,0.48119 -0.54254,0.53382 -1.02474,0.53382 -0.50374,0 -0.56982,0.0403 -1.13223,0.68678 -0.32845,0.37762 -1.10996,1.0503 -1.73736,1.495 l -1.14102,0.80821 v 1.00769 c 0,0.554 -0.0768,1.28227 -0.17105,1.61851 -0.0943,0.33623 -0.23222,0.84576 -0.30592,1.13223 -0.0903,0.35067 -0.3274,0.72521 -0.72605,1.1467 l -0.59222,0.62632 0.32246,1.64021 c 0.17736,0.90241 0.38099,1.7507 0.45269,1.88464 0.0717,0.13402 0.96517,1.46871 1.98541,2.96571 1.85216,2.71761 1.85853,2.72455 4.04368,4.80591 l 2.1885,2.08463 3.48867,0.99787 3.48919,0.99839 2.43138,0.0641 2.43189,0.0641 1.89808,0.64234 c 1.98923,0.67314 1.97421,0.66387 3.05924,1.87431 l 0.44959,0.50177 h 1.74873 1.74873 l 0.61908,0.62632 c 0.34025,0.34457 0.61822,0.67836 0.61805,0.74156 -3.5e-4,0.10142 -0.30961,0.64807 -1.0852,1.91823 l -0.23203,0.38034 0.62942,0.40411 c 0.34598,0.22245 1.18928,0.75794 1.8743,1.18959 0.99885,0.62939 1.33979,0.91907 1.72031,1.46399 0.26098,0.3737 0.49197,0.7219 0.51367,0.7736 0.0217,0.0516 -0.16537,0.0871 -0.41548,0.0801 -0.45227,-0.0138 -0.68004,-0.0453 -2.94556,-0.40876 -2.88446,-0.46267 -6.21492,-1.24066 -8.89661,-2.07791 -8.00229,-2.49843 -15.04181,-6.23156 -21.47001,-11.38587 -6.349,-5.09087 -11.91389,-11.49795 -15.44712,-17.78496 -3.37964,-6.01377 -5.63944,-11.53316 -7.38301,-18.03043 -0.88076,-3.28216 -1.55202,-7.36729 -1.90014,-11.56518 -0.17477,-2.10743 -0.14378,-7.5224 0.0563,-9.8454 0.20172,-2.34196 0.43,-4.23295 0.65216,-5.39708 0.056,-0.29358 0.16321,-0.88075 0.23771,-1.30483 0.12947,-0.73658 0.19904,-1.0735 0.48318,-2.34301 0.68478,-3.05979 1.84513,-6.80761 2.98379,-9.63766 0.70983,-1.76417 2.1653,-4.78232 2.40037,-4.97747 0.25332,-0.21019 0.46021,0.27376 0.38861,0.90899 -0.0583,0.51771 -0.0533,0.52608 0.54829,0.93121 0.66553,0.44822 0.79812,0.47892 1.1405,0.2651 0.12664,-0.0792 0.26045,-0.11307 0.29765,-0.076 0.0371,0.0372 0.14897,0.45835 0.24857,0.93586 0.0995,0.47753 0.21189,0.91775 0.24959,0.97875 0.0376,0.0609 0.26407,-0.11653 0.50333,-0.39429 l 0.43512,-0.50488 0.66869,0.4439 c 0.37889,0.25161 0.74513,0.60606 0.84543,0.81804 0.87915,1.85891 1.02577,2.25101 1.02577,2.74712 0,0.29331 -0.0426,0.5333 -0.0946,0.5333 -0.052,0 -0.30215,-0.21285 -0.55604,-0.47284 -0.43327,-0.44376 -0.47465,-0.46064 -0.67645,-0.27802 -0.31579,0.28582 -0.26863,0.42931 0.26872,0.81701 0.35059,0.25308 0.59337,0.58243 0.88418,1.19837 0.34265,0.72598 0.45469,0.8615 0.76998,0.9307 0.26971,0.0593 0.43083,0.025 0.59842,-0.12661 0.31401,-0.28418 0.29692,-0.33142 -0.24547,-0.6904 -0.41548,-0.27491 -0.47322,-0.36905 -0.46922,-0.75706 0.0116,-0.99685 0.18464,-1.45448 0.77722,-2.0562 0.31511,-0.31985 0.62838,-0.58152 0.69608,-0.58188 0.0677,-4.2e-4 0.31607,-0.0547 0.55242,-0.1204 0.40825,-0.11339 0.43389,-0.15028 0.50849,-0.74053 0.0431,-0.34173 0.1084,-0.78929 0.1447,-0.99477 0.0638,-0.36048 0.0164,-0.41117 -1.34566,-1.4397 -1.17647,-0.88841 -1.43621,-1.14236 -1.56062,-1.52446 -0.0821,-0.25213 -0.17663,-0.52508 -0.21033,-0.60668 -0.1446,-0.34861 0.30031,-0.0572 2.23604,1.46244 l 2.05156,1.61024 0.25321,0.85111 c 0.13923,0.468 0.37086,1.30476 0.5147,1.85932 0.50049,1.92892 0.27768,1.66523 2.35696,2.79053 l 0.63407,0.34313 0.67076,-0.35089 0.67076,-0.3514 0.0367,-0.63975 c 0.0333,-0.58396 0.003,-0.6743 -0.34778,-1.03611 -0.2113,-0.21802 -0.34958,-0.43074 -0.30748,-0.47284 0.0421,-0.0421 0.32979,0.007 0.63924,0.10852 0.30948,0.10196 0.59972,0.16236 0.64492,0.13436 0.0453,-0.028 0.11892,-0.36687 0.16382,-0.75344 0.12759,-1.09932 0.66842,-1.87413 2.74712,-3.93723 1.00157,-0.99411 1.82107,-1.82468 1.82107,-1.84588 0,-0.021 -0.18917,-0.0388 -0.42013,-0.0388 -0.53385,0 -1.24111,-0.3589 -1.63917,-0.83199 l -0.30954,-0.36794 0.34364,-0.68109 c 0.31553,-0.62515 0.70307,-0.96584 1.09864,-0.96584 0.0714,0 0.49569,-0.10913 0.9431,-0.24236 l 0.81339,-0.24184 v -0.52814 c 0,-0.54112 0.0492,-0.61098 0.92035,-1.31981 0.19796,-0.16109 0.32617,-0.49617 0.49248,-1.28571 0.12388,-0.58717 0.20357,-1.10192 0.17777,-1.14412 -0.0259,-0.042 -0.2474,-0.0327 -0.49248,0.0207 -0.24497,0.0534 -0.82718,0.16235 -1.29398,0.24185 -0.70222,0.11962 -0.87068,0.19286 -0.97616,0.42426 -0.15521,0.34059 -0.32124,0.34954 -0.78497,0.0424 -0.19573,-0.12957 -0.41631,-0.23624 -0.49041,-0.23668 -0.0741,-4.1e-4 -0.42484,0.23792 -0.77928,0.52968 -0.50682,0.41726 -0.81969,0.57034 -1.46658,0.71727 -0.45228,0.10272 -0.91754,0.215 -1.03353,0.2496 -0.16668,0.0497 -0.28467,-0.1006 -0.5643,-0.71727 -0.19445,-0.42906 -0.386,-0.7798 -0.4253,-0.7798 -0.0395,0 -0.51629,0.24024 -1.05937,0.53382 -0.7714,0.41707 -1.10909,0.53382 -1.54512,0.53382 h -0.55811 l 0.0724,-0.69195 c 0.11271,-1.07774 -0.0426,-0.92446 2.0376,-2.01073 0.39138,-0.20441 1.01276,-0.42965 1.3808,-0.50075 l 0.66869,-0.1297 0.0806,-0.64544 c 0.077,-0.61668 0.15857,-0.73872 1.82987,-2.75177 0.96209,-1.15871 1.81424,-2.26985 1.89394,-2.46859 0.11346,-0.28325 0.40266,-0.50106 1.33893,-1.0082 0.76344,-0.41355 1.2316,-0.74302 1.2976,-0.91364 0.057,-0.14683 0.11823,-0.26665 0.13643,-0.26665 0.0546,0 2.02897,0.94368 2.30166,1.10019 0.5134,0.29465 1.33882,1.42044 1.58595,2.16317 0.13468,0.40466 0.38198,0.86351 0.54932,1.01958 l 0.30438,0.2837 0.39584,-0.4563 c 0.46826,-0.5392 0.64886,-0.49045 0.56276,0.15193 -0.0598,0.44576 -0.0381,0.48394 0.48575,0.85318 0.3016,0.21259 0.54829,0.42587 0.54829,0.47387 0,0.0479 -0.13302,0.19205 -0.2961,0.32039 -0.39035,0.30699 -0.37497,0.38334 0.14417,0.71986 0.39847,0.25821 0.47005,0.26941 0.79892,0.12402 0.19882,-0.0879 0.69783,-0.16185 1.10898,-0.16485 0.6538,-0.005 0.77624,-0.0429 0.97616,-0.30231 0.32451,-0.42105 0.29522,-0.47438 -0.25889,-0.47438 -0.37154,0 -0.61825,-0.0947 -1.00459,-0.38551 -0.28159,-0.21203 -0.51212,-0.46547 -0.51212,-0.56327 0,-0.0979 0.23061,-0.352 0.51263,-0.56431 0.42754,-0.32177 0.57806,-0.37246 0.90589,-0.30696 0.35379,0.0707 0.38406,0.0559 0.30076,-0.14779 -0.25953,-0.63458 -0.2542,-0.64182 0.447,-0.64182 h 0.65887 l 0.0367,-0.44494 c 0.0317,-0.38293 0.0813,-0.45012 0.3545,-0.48162 0.24141,-0.0279 0.38321,0.0524 0.5917,0.33434 0.24404,0.33003 0.31954,0.36213 0.6904,0.29353 0.5146,-0.0953 1.18804,-0.49643 1.18804,-0.70797 0,-0.0865 -0.28814,-0.24782 -0.64027,-0.35864 -0.53034,-0.167 -0.74538,-0.17937 -1.25161,-0.0708 -0.91669,0.19659 -1.55838,0.16211 -1.96319,-0.10594 -0.19565,-0.12969 -0.49941,-0.23625 -0.67437,-0.23668 -0.21874,-5.4e-4 -0.34258,-0.0783 -0.39688,-0.24959 -0.10748,-0.33845 0.029,-0.44103 0.64647,-0.48473 0.48509,-0.0344 0.54699,-0.0773 0.81908,-0.57102 0.16179,-0.29358 0.5814,-0.91744 0.93276,-1.38597 0.5052,-0.67366 0.7508,-0.89428 1.17357,-1.05575 0.66796,-0.25507 0.6537,-0.51687 -0.0408,-0.75757 -0.42901,-0.1487 -0.50281,-0.2224 -0.50281,-0.50385 0,-0.31146 0.0295,-0.33021 0.52917,-0.33021 0.58908,0 0.68454,-0.0743 1.43764,-1.12345 0.54419,-0.75821 0.61209,-0.79671 1.13636,-0.6413 0.35152,0.10418 0.58956,0.0393 2.10995,-0.57619 1.60597,-0.65015 1.71974,-0.71704 1.81074,-1.06815 0.12586,-0.48575 0.29075,-0.57777 0.57516,-0.3204 0.21978,0.19947 0.22996,0.19759 0.22996,-0.0408 0,-0.35977 0.16919,-0.41242 0.66146,-0.20671 0.23918,0.0999 0.45796,0.18139 0.48576,0.18139 0.028,0 0.1342,-0.2003 0.23564,-0.44494 0.29561,-0.71273 1.01617,-1.81963 1.15445,-1.77353 0.0699,0.0233 0.17326,0.23837 0.22996,0.478 0.0567,0.23963 0.13795,0.43351 0.18035,0.43254 0.0425,-0.002 0.39164,-0.3686 0.77618,-0.81546 l 0.69919,-0.81235 0.84284,-0.076 c 0.79107,-0.071 1.68494,-0.1314 6.24045,-0.42374 3.52767,-0.2264 3.3343,-0.18366 4.30723,-0.95085 1.07693,-0.84918 1.26959,-0.95136 1.79368,-0.95136 0.45587,0 0.55827,-0.20342 0.25529,-0.50643 -0.0922,-0.0921 -0.79924,-0.37176 -1.57148,-0.62115 -1.59471,-0.51496 -1.9033,-0.69949 -1.4547,-0.87023 0.1581,-0.0602 0.49472,-0.19601 0.74776,-0.30179 0.4373,-0.18277 0.47913,-0.18025 0.84853,0.0481 0.29784,0.18406 0.45379,0.21372 0.66714,0.12712 0.15297,-0.0621 0.41157,-0.14282 0.57464,-0.17932 0.59686,-0.13379 0.67505,-0.26283 0.36174,-0.59634 -0.27748,-0.29578 -0.32344,-0.30283 -1.8712,-0.30283 h -1.58647 l 0.0357,-0.68213 0.0356,-0.68213 0.84129,-0.0589 c 0.83221,-0.0587 0.84679,-0.0656 1.33429,-0.62993 0.27107,-0.31385 0.49299,-0.62568 0.49299,-0.69298 0,-0.0673 -0.10676,-0.25839 -0.23719,-0.42427 -0.13046,-0.16588 -0.2372,-0.34771 -0.2372,-0.40411 0,-0.0702 0.85971,-0.10289 1.91978,-0.0997 z m 25.85837,6.04614 c 0.25721,0 3.68692,1.72868 5.06791,2.55437 1.81506,1.08523 4.04472,2.70553 4.04472,2.93935 0,0.053 -0.3607,0.25871 -0.80099,0.45734 -1.02149,0.4607 -1.14053,0.55578 -0.96532,0.76688 0.21685,0.2613 2.0901,0.21768 2.71715,-0.063 0.46322,-0.20729 0.54311,-0.21111 1.02164,-0.0481 0.48313,0.16462 0.99271,0.62567 0.99271,0.89762 0,0.0761 -0.46673,0.0878 -1.31878,0.0326 l -1.31879,-0.0858 -0.51986,0.51004 c -0.28588,0.28054 -0.51987,0.54313 -0.51987,0.58343 0,0.0404 0.32247,0.30696 0.71624,0.59221 0.40781,0.29543 0.70123,0.59368 0.68213,0.69298 -0.0186,0.0959 -0.1939,0.26477 -0.38964,0.37517 -0.29188,0.16466 -0.35078,0.26768 -0.32608,0.57309 0.0272,0.33605 -10e-4,0.37132 -0.29611,0.36432 -0.19036,-0.005 -0.94595,-0.39162 -1.8097,-0.92656 -0.81551,-0.50505 -1.77649,-1.02997 -2.13528,-1.16685 -0.35888,-0.13684 -1.15945,-0.44109 -1.77921,-0.67593 -0.61979,-0.23483 -1.18624,-0.46681 -1.25884,-0.51521 -0.0726,-0.0485 -0.56964,-0.62192 -1.10484,-1.27434 -0.77157,-0.94055 -1.09565,-1.24171 -1.56477,-1.45366 -0.43173,-0.19509 -0.63515,-0.37162 -0.75396,-0.65267 -0.0895,-0.2118 -0.36741,-0.57801 -0.61701,-0.81391 -0.44603,-0.42162 -0.48866,-0.43449 -2.52801,-0.75602 -1.14105,-0.1799 -2.13364,-0.34932 -2.20504,-0.37672 -0.16854,-0.0647 -0.5309,-0.82406 -0.4377,-0.91726 0.0392,-0.0393 0.16937,-0.0713 0.28887,-0.0713 0.22914,0 0.2636,-0.097 0.14522,-0.40566 -0.0605,-0.15742 -0.31447,-0.18759 -1.58285,-0.18759 -1.35389,0 -1.53298,-0.0242 -1.7229,-0.23409 -0.20552,-0.22697 -0.20206,-0.23771 0.10801,-0.35554 0.50589,-0.19239 2.83995,-0.14236 5.01261,0.10749 1.0966,0.12611 2.53311,0.26587 3.19257,0.31057 l 1.19941,0.0811 0.32711,-0.42892 c 0.18009,-0.23608 0.37785,-0.42943 0.43925,-0.42943 z m -43.37306,7.85792 -0.70745,0.0305 -0.10439,0.44183 c -0.0872,0.37036 -0.0624,0.49433 0.15193,0.76688 0.19283,0.24514 0.25083,0.472 0.23823,0.92242 -0.01,0.32852 -0.0132,0.63737 -0.007,0.68627 0.006,0.0488 0.24739,0.0889 0.53743,0.0889 0.45603,0 0.54781,-0.0436 0.68161,-0.32143 0.1133,-0.2352 0.28199,-0.34641 0.62942,-0.41651 0.82689,-0.16656 0.8236,-0.14372 0.16278,-1.12861 -0.33991,-0.50663 -0.67551,-0.96181 -0.74621,-1.01131 -0.0704,-0.0493 -0.44687,-0.0757 -0.83612,-0.0589 z m -3.64371,0.74879 c -0.10986,0.0146 -0.26454,0.0616 -0.4625,0.14418 -0.288,0.1201 -0.76374,0.29479 -1.0573,0.38809 -0.7188,0.22844 -1.45325,0.97433 -1.64951,1.67535 -0.10629,0.37974 -0.32959,0.71969 -0.73432,1.11828 -0.64732,0.63759 -0.74587,1.04871 -0.33952,1.41645 0.22935,0.20755 0.26003,0.20871 0.58188,0.0186 0.55941,-0.33045 2.11047,-0.26257 3.20911,0.14056 0.48939,0.17946 0.92888,0.2947 0.97668,0.2558 0.0477,-0.0389 0.12013,-0.23865 0.16123,-0.4439 0.0709,-0.35454 0.0439,-0.38852 -0.54053,-0.68471 -0.7696,-0.38995 -0.73605,-0.43914 0.86248,-1.24799 0.99431,-0.50313 1.24871,-0.68802 1.43143,-1.04076 l 0.22221,-0.42892 -0.37465,-0.33434 c -0.31228,-0.27887 -0.41496,-0.31309 -0.61754,-0.20464 -0.19197,0.10276 -0.29042,0.0869 -0.46922,-0.0749 -0.21635,-0.19574 -0.25539,-0.18549 -0.87798,0.22789 -0.35838,0.23794 -0.72976,0.43253 -0.82476,0.43253 -0.36744,0 -0.28417,-0.23537 0.24857,-0.70435 0.5112,-0.44994 0.58384,-0.69709 0.25424,-0.65319 z m 6.54017,3.02049 c -0.2411,0.006 -0.48289,0.044 -0.52399,0.11059 -0.0384,0.0621 0.0434,0.46211 0.18138,0.88935 0.13801,0.42723 0.26495,0.77721 0.28215,0.77721 0.0172,0 0.20461,-0.0606 0.41651,-0.13436 l 0.38499,-0.13436 -0.0827,-0.66662 c -0.0456,-0.3665 -0.10694,-0.70661 -0.13694,-0.75551 -0.0396,-0.0646 -0.28031,-0.0918 -0.52142,-0.0863 z m -1.896,0.50229 c -0.10896,-0.0219 -0.29297,-0.006 -0.62942,0.0331 -0.40156,0.0462 -0.76479,0.13867 -0.80719,0.20567 -0.11915,0.18825 -0.24755,1.6067 -0.15865,1.7508 0.1369,0.22152 0.34585,0.0591 0.5793,-0.44959 0.16683,-0.36368 0.34148,-0.53734 0.67231,-0.66973 0.52656,-0.2108 0.62809,-0.34144 0.52245,-0.67437 -0.0361,-0.11361 -0.0699,-0.17394 -0.1788,-0.19586 z m -10.13324,2.10478 c -0.23397,0 -1.02919,0.70798 -0.94619,0.84233 0.0995,0.16098 0.19424,0.1342 0.67696,-0.19379 0.44672,-0.30357 0.58999,-0.64854 0.26923,-0.64854 z m 11.05876,0.0181 c -0.0858,-0.002 -0.12966,0.07 -0.20671,0.21394 -0.099,0.18503 -0.0714,0.28027 0.13695,0.47439 0.29732,0.27707 0.37876,0.29078 0.69815,0.11989 0.32374,-0.17325 0.28756,-0.29648 -0.17002,-0.57929 -0.2449,-0.15139 -0.3726,-0.22694 -0.45837,-0.22893 z m -6.93549,0.33796 c -0.27697,0 -1.57717,0.27523 -1.57717,0.33383 0,0.0398 0.14668,0.19265 0.32608,0.33952 0.26971,0.22085 0.47413,0.2673 1.17926,0.2713 0.46919,0.002 0.8826,-0.0436 0.9188,-0.10232 0.062,-0.1002 -0.68424,-0.84233 -0.84697,-0.84233 z m 3.35121,0.71004 -0.41599,0.41599 c -0.36693,0.36693 -0.38695,0.416 -0.1695,0.416 0.13554,0 0.34298,0.10676 0.46095,0.23719 0.31964,0.35315 0.73063,0.30435 0.9462,-0.11265 0.25704,-0.49701 0.23849,-0.54004 -0.3204,-0.75964 z m 4.02715,0.95085 -0.53382,0.0754 c -0.6155,0.0869 -0.94878,0.23366 -0.94878,0.41703 0,0.0751 0.11034,0.0988 0.26665,0.0569 0.14683,-0.0395 0.35457,-0.0725 0.46147,-0.0734 0.10697,-9e-4 0.32039,-0.10831 0.47439,-0.23875 z m -8.24084,0.47438 c -0.82716,0 -0.91664,0.15256 -0.32918,0.56328 0.38344,0.26794 1.27486,0.37714 1.27486,0.15606 0,-0.061 -0.0521,-0.24762 -0.11576,-0.41496 -0.10647,-0.28017 -0.17192,-0.30438 -0.82992,-0.30438 z m 2.67735,0.0801 c -0.17452,-0.067 -0.30799,0.01 -0.30799,0.17674 0,0.0544 0.10676,0.0987 0.2372,0.0987 0.27193,0 0.31833,-0.18044 0.0708,-0.27544 z m 0.33538,0.98857 c -0.39094,0.0118 -0.78681,0.0643 -0.85524,0.14728 -0.0673,0.0816 -0.22871,0.44165 -0.35915,0.80047 -0.13041,0.35884 -0.35961,0.97878 -0.50953,1.37769 -0.26145,0.6958 -0.2642,0.73828 -0.0677,1.03818 0.11262,0.17193 0.23157,0.31264 0.26407,0.31264 0.10705,0 1.00245,-0.62334 1.00304,-0.69814 3.4e-4,-0.0403 -0.0857,-0.31382 -0.19121,-0.60824 -0.18178,-0.5074 -0.17945,-0.55665 0.0388,-0.94877 0.18968,-0.34073 0.30806,-0.42054 0.6718,-0.45114 0.347,-0.0292 0.49004,-0.11638 0.66662,-0.40669 0.12363,-0.20326 0.19795,-0.41366 0.16485,-0.46716 -0.0491,-0.0795 -0.43536,-0.10794 -0.82631,-0.0961 z m 3.35794,0.0522 c -0.0332,-0.0435 -0.10827,-0.0543 -0.19947,0.002 -0.0707,0.0437 -0.0954,0.13411 -0.0543,0.20051 l 5.1e-4,-5.2e-4 c 0.0501,0.0813 0.11634,0.0794 0.20154,-0.006 0.0762,-0.0762 0.0849,-0.15285 0.0517,-0.19637 z m -7.71374,0.092 c -0.14782,0.0147 -0.31094,0.0932 -0.62994,0.2496 -0.35488,0.17403 -0.7656,0.31677 -0.91312,0.31677 -0.42652,0 -1.43962,1.12567 -1.67845,1.86501 l -0.20051,0.6196 0.30541,0.39997 c 0.37408,0.49042 0.38012,0.62564 0.0377,0.80667 -0.14672,0.0776 -0.59311,0.42655 -0.99218,0.77567 -0.39908,0.3491 -0.89516,0.69416 -1.10226,0.76636 -0.28911,0.10079 -0.46019,0.29612 -0.73536,0.84129 -0.31033,0.61472 -0.39316,0.69985 -0.61753,0.63355 -1.30414,-0.38519 -1.56712,-0.42804 -1.81281,-0.29662 -0.13963,0.0748 -0.3541,0.11693 -0.47697,0.0935 -0.19014,-0.0362 -0.23217,-0.18281 -0.28267,-0.99012 -0.0656,-1.04792 -0.17685,-1.15955 -0.88625,-0.88986 l -0.33642,0.12764 0.31471,0.32866 c 0.17316,0.18076 0.31471,0.40699 0.31471,0.50229 0,0.0954 -0.6146,0.7861 -1.36632,1.53531 -1.22043,1.21645 -1.35926,1.39695 -1.29656,1.68413 0.0523,0.23926 -0.0398,0.50961 -0.36019,1.05627 -0.33286,0.56805 -0.39563,0.75683 -0.27543,0.83302 0.3209,0.20353 0.56627,0.0853 1.00665,-0.48575 0.24943,-0.32343 0.50084,-0.59025 0.55914,-0.59325 0.0591,-0.003 0.0726,0.31637 0.0305,0.71985 l -0.076,0.72451 0.44338,-0.0832 c 0.58241,-0.10929 0.57968,-0.1068 0.84698,-0.71107 0.24337,-0.55021 0.16173,-0.50649 1.66398,-0.89607 0.22274,-0.0574 0.44921,-0.0775 0.50281,-0.0444 0.0536,0.0331 -0.0898,0.4324 -0.31884,0.88728 l -0.41652,0.82683 0.26975,0.10852 c 0.86751,0.34842 1.72451,-0.22691 2.41278,-1.62006 0.46416,-0.93936 0.57305,-1.0444 2.682,-2.57607 1.14874,-0.83436 1.27357,-0.9615 1.34307,-1.37304 0.10859,-0.64287 0.26221,-0.79831 1.06764,-1.07797 0.39139,-0.13593 0.7522,-0.28592 0.8015,-0.33332 0.0493,-0.0473 -0.16058,-0.42243 -0.46612,-0.83354 -0.4436,-0.59688 -0.52992,-0.78641 -0.42891,-0.94206 0.0695,-0.10722 0.22579,-0.18178 0.34726,-0.16588 0.40028,0.0527 1.32535,-0.1055 1.54151,-0.26355 0.17971,-0.13153 0.18782,-0.18407 0.0537,-0.34571 -0.12245,-0.14746 -0.38355,-0.19121 -1.15187,-0.19121 -0.75334,0 -0.99373,-0.0382 -0.99373,-0.15916 0,-0.3513 0.47176,-0.58037 1.47174,-0.71417 1.52183,-0.20355 1.62089,-0.49224 0.33745,-0.98237 -0.25918,-0.099 -0.39169,-0.14852 -0.5395,-0.13384 z m 10.17044,0.17777 c -1.26991,0.14715 -1.58941,0.22424 -1.97198,0.47645 -0.43456,0.28646 -0.62509,0.5603 -0.51469,0.73898 0.032,0.0518 0.29882,0.2073 0.59324,0.34571 0.37172,0.17472 0.53537,0.32405 0.53537,0.48834 0,0.19243 -0.0797,0.23668 -0.42633,0.23668 -0.24208,0 -0.55206,-0.0992 -0.7183,-0.22996 -0.28723,-0.22524 -0.30184,-0.22562 -0.81132,-0.007 -0.46126,0.1976 -0.53551,0.20227 -0.66818,0.0424 -0.11403,-0.13813 -0.11648,-0.2309 -0.0109,-0.39997 0.11826,-0.18935 0.082,-0.25418 -0.25838,-0.46457 -0.2177,-0.13455 -0.45595,-0.24495 -0.52865,-0.24495 -0.25705,0 -0.72916,1.14979 -0.72916,1.7756 v 0.59686 l 0.56327,0.003 c 0.43705,0.003 0.66732,0.0817 1.02578,0.35295 l 0.46199,0.34984 0.57929,-0.32349 0.57981,-0.32349 0.67851,0.73483 c 0.48785,0.52833 0.87839,0.82172 1.3901,1.04387 0.39123,0.16983 0.87168,0.38523 1.06763,0.47852 0.19556,0.0931 0.41717,0.1706 0.49248,0.17157 0.1339,0.003 0.87126,-1.18995 0.87126,-1.40922 0,-0.061 -0.26701,-0.1997 -0.59324,-0.30799 -0.63441,-0.21073 -0.70592,-0.33094 -0.39843,-0.67076 0.18034,-0.19964 0.1794,-0.26249 -0.0114,-0.8692 -0.11312,-0.35967 -0.24802,-0.6801 -0.29972,-0.7121 -0.11457,-0.0708 -0.83244,0.1687 -0.83147,0.27699 7.5e-4,0.0426 0.079,0.36957 0.17415,0.72708 0.22259,0.83635 0.0957,0.97061 -0.51677,0.54622 -1.06122,-0.73546 -1.05912,-0.92943 0.0238,-2.05723 0.65873,-0.68599 0.70765,-0.77281 0.60048,-1.06971 -0.0793,-0.2194 -0.19129,-0.3143 -0.34829,-0.2961 z m -19.85822,0.86299 c -0.8493,0 -0.99052,0.16645 -0.66095,0.77825 0.20524,0.38102 0.20452,0.40035 -0.0403,0.74414 -0.24809,0.34842 -0.33586,0.96102 -0.16278,1.13947 0.12082,0.12468 2.04569,-1.9572 2.04587,-2.21279 1.6e-4,-0.30554 -0.37736,-0.44907 -1.18184,-0.44907 z m -2.22674,1.2082 c -0.32973,0.0381 -0.47052,0.30009 -0.34107,0.63717 0.13159,0.3431 0.66611,0.0425 0.66611,-0.37465 0,-0.25672 -0.0463,-0.29472 -0.32504,-0.26252 z m 12.06179,0.93948 c -0.31197,-0.0126 -0.31391,0.24012 0.0289,0.70383 v 5.2e-4 c 0.37001,0.50042 0.68937,0.46927 0.68937,-0.0672 0,-0.33965 -0.0573,-0.43982 -0.30438,-0.53382 -0.17156,-0.0652 -0.30994,-0.0992 -0.41393,-0.10335 z m -13.13408,1.23558 c -0.20618,-0.003 -0.3816,0.14497 -0.38189,0.36794 7.5e-4,0.216 0.52422,0.21147 0.70487,-0.006 0.1128,-0.1359 0.0906,-0.19675 -0.11162,-0.3049 -0.0703,-0.0376 -0.14257,-0.0557 -0.21136,-0.0568 z m 6.87297,0.44028 c -0.0733,-0.0416 -0.19394,-0.006 -0.38292,0.0951 -0.21907,0.11719 -0.32471,0.69123 -0.15813,0.85783 0.0392,0.0391 0.19895,0.0129 0.35553,-0.0584 0.21774,-0.0992 0.28474,-0.22302 0.28474,-0.52606 0,-0.20828 -0.0259,-0.3269 -0.0992,-0.36846 z m 12.8173,0.5886 c -0.38728,0.0331 -0.43851,0.0825 -0.6103,0.59118 -0.10304,0.30528 -0.22823,0.59542 -0.27853,0.64492 -0.0503,0.0494 -0.24276,-0.091 -0.42737,-0.31213 l -0.33538,-0.40204 -0.49247,0.38964 c -0.27073,0.21441 -0.49196,0.43219 -0.49196,0.48369 0,0.0515 0.14181,0.3476 0.31522,0.65784 0.31274,0.55958 0.31334,0.56696 0.10077,0.9617 -0.11784,0.21882 -0.81584,0.98611 -1.55132,1.70481 -1.20007,1.17269 -1.38132,1.30689 -1.76372,1.30689 -0.29203,0 -0.63055,0.13603 -1.07642,0.43202 -0.69194,0.45945 -0.74414,0.56152 -0.46922,0.92501 0.0958,0.12663 0.17415,0.27164 0.17415,0.32194 0,0.119 -0.96757,1.04903 -1.09141,1.04903 -0.0521,0 -0.0946,-0.24023 -0.0946,-0.53382 0,-0.45804 -0.0341,-0.53381 -0.24184,-0.53381 -0.35573,0 -1.20484,0.46446 -1.15084,0.62942 0.0257,0.078 0.1924,0.15883 0.37052,0.17983 0.28643,0.0337 0.32024,0.0824 0.28784,0.41548 -0.0328,0.33906 -0.0875,0.38747 -0.54312,0.48317 -0.40653,0.0853 -0.58521,0.0639 -0.90433,-0.108 -0.39241,-0.21128 -0.41167,-0.20942 -1.41129,0.11575 -0.9956,0.32386 -1.0219,0.34212 -1.51257,1.06557 -0.27457,0.40492 -0.80123,0.97788 -1.17047,1.27331 -0.46458,0.37175 -0.79543,0.77099 -1.07487,1.29604 -0.46867,0.88061 -1.45219,1.97395 -1.82314,2.02675 -0.23001,0.0328 -0.25976,0.11989 -0.29146,0.85112 -0.028,0.6439 0.008,0.86266 0.17208,1.04386 0.1978,0.21758 0.19798,0.24893 0.003,0.61081 -0.1574,0.29218 -0.17922,0.46385 -0.093,0.73536 0.0617,0.19483 0.14425,0.50063 0.18345,0.68006 l -5.2e-4,5.2e-4 c 0.0392,0.17944 0.13684,0.32443 0.21704,0.32143 0.0803,-0.002 0.57309,-0.34914 1.09503,-0.7705 l 0.94929,-0.76636 h 1.05524 c 1.02655,-3.7e-4 1.08266,-0.0152 2.03501,-0.53433 1.25094,-0.68193 1.51023,-0.69114 1.69912,-0.0605 0.0971,0.32425 0.22489,0.49431 0.40515,0.53951 0.14477,0.0363 0.98911,-0.12363 1.87637,-0.35502 0.88735,-0.23143 1.70936,-0.42065 1.82676,-0.42065 0.11732,0 0.38956,0.13416 0.60462,0.29818 0.21506,0.16404 0.82461,0.46378 1.35443,0.6661 l 0.96325,0.36794 0.43615,-0.35192 c 0.34451,-0.27806 0.44878,-0.45632 0.49558,-0.84852 0.0521,-0.43636 0.12071,-0.53078 0.56792,-0.78393 l 0.5085,-0.28836 0.1142,0.30024 c 0.0626,0.16499 0.11479,0.38973 0.11576,0.49971 0.003,0.3355 0.16935,0.4917 0.447,0.4191 0.22589,-0.0591 0.26303,-0.14984 0.26303,-0.64802 0,-0.46423 0.0397,-0.5793 0.19999,-0.5793 0.37677,0 0.74879,-0.48215 0.74879,-0.96996 0,-0.44978 0.005,-0.45372 0.46664,-0.45372 0.42089,0 0.46995,-0.0319 0.50385,-0.32608 0.04,-0.34756 0.0729,-0.35564 0.88315,-0.21653 l 0.48937,0.0842 0.42995,-0.76843 c 0.31513,-0.56344 0.42995,-0.91037 0.42995,-1.29863 0,-0.60758 0.11232,-0.73178 0.76998,-0.85059 0.63001,-0.11379 0.67669,-0.15388 0.52038,-0.44597 -0.11878,-0.22192 -0.0547,-0.32177 0.58446,-0.91209 0.47038,-0.43456 0.76449,-0.81635 0.85369,-1.10794 0.11621,-0.37912 0.18709,-0.44442 0.47749,-0.44442 0.20095,0 0.38844,0.0848 0.45734,0.20722 0.11116,0.19721 0.13628,0.19734 0.51005,10e-4 0.21626,-0.11353 0.60666,-0.2508 0.86764,-0.3049 0.42804,-0.0888 0.47199,-0.13115 0.44959,-0.43511 -0.0372,-0.50306 -0.16439,-0.56642 -0.87798,-0.43667 -0.35068,0.0644 -0.67746,0.0915 -0.72606,0.0615 -0.0486,-0.03 6e-4,-0.19002 0.10904,-0.35554 0.1924,-0.29363 0.18794,-0.30838 -0.17932,-0.59583 -0.20702,-0.16204 -0.37672,-0.33593 -0.37672,-0.38653 0,-0.0506 0.21863,-0.17774 0.48576,-0.28267 0.48152,-0.18911 0.48544,-0.19493 0.40514,-0.67025 -0.0865,-0.51198 -0.0554,-0.54905 0.30334,-0.35708 0.20333,0.10884 0.22945,0.0823 0.22945,-0.23616 0,-0.31897 -0.11261,-0.43426 -1.00304,-1.02681 -0.9337,-0.62139 -1.03398,-0.66091 -1.45314,-0.57051 -0.24757,0.0532 -0.50281,0.10035 -0.56741,0.10335 -0.0647,0.003 -0.19832,-0.31145 -0.29662,-0.6997 l -0.1788,-0.7059 -0.71211,-0.26251 c -0.39135,-0.14426 -1.04116,-0.38552 -1.44383,-0.53641 -0.71828,-0.26918 -0.73679,-0.27021 -0.97876,-0.0512 -0.21712,0.19648 -0.3032,0.20612 -0.7152,0.0827 -0.28193,-0.0844 -0.56998,-0.28285 -0.72399,-0.4992 -0.2153,-0.30232 -0.32278,-0.35389 -0.67851,-0.32349 z m 28.05721,9.61388 c -0.091,0.03 -0.17203,0.36657 -0.21033,0.87023 -0.0436,0.57507 -0.16048,1.0086 -0.38964,1.44746 -0.32332,0.61923 -0.3254,0.63816 -0.18655,1.63091 l 0.14056,1.00459 h 0.39739 c 0.21847,0 0.39747,-0.04 0.39791,-0.0889 4.2e-4,-0.049 -0.0894,-0.55865 -0.19947,-1.13274 -0.18752,-0.97878 -0.18736,-1.07867 0,-1.60146 0.24193,-0.67528 0.27801,-2.2052 0.0501,-2.1301 z m -60.57719,3.88555 c -0.11724,0 -0.36256,0.91023 -0.27026,1.00252 0.1771,0.17709 0.3785,0.0227 0.447,-0.34261 0.0761,-0.4058 0.008,-0.65991 -0.17674,-0.65991 z m 60.7534,1.92702 c -0.0609,-0.0203 -0.2253,0.0584 -0.36587,0.17466 l -0.2558,0.21136 0.23513,0.76843 c 0.13724,0.4486 0.34701,0.85754 0.50436,0.98237 0.2237,0.1775 0.40097,0.20131 1.04077,0.13901 0.86481,-0.0843 0.94878,-0.11549 0.94878,-0.34779 0,-0.1036 -0.16343,-0.1772 -0.44494,-0.2005 -0.40455,-0.0335 -0.49446,-0.11132 -0.99787,-0.86351 -0.30433,-0.45488 -0.60356,-0.84373 -0.66456,-0.86403 z m -59.5266,2.48098 c -1.12251,0.0267 -1.74571,0.0889 -1.84071,0.18397 -0.11243,0.11259 -0.0733,0.42918 0.18087,1.45779 0.317,1.28316 0.32035,1.33136 0.13797,2.05827 -0.22541,0.89903 -0.23253,1.10623 -0.0388,1.18443 0.33238,0.13411 0.51094,0.0495 1.23249,-0.58395 l 0.75447,-0.66249 v -1.002 c 0,-0.62235 -0.0672,-1.16331 -0.17776,-1.42782 -0.0978,-0.2342 -0.17777,-0.46687 -0.17777,-0.51677 0,-0.0498 0.25338,-0.12555 0.56327,-0.16795 1.07511,-0.14745 1.20667,-0.19181 1.13327,-0.38343 -0.0587,-0.15294 -0.33092,-0.17425 -1.76734,-0.14005 z m 27.00662,4.45399 c -0.0627,-0.0532 -0.19826,-0.0447 -0.41961,0.0145 -0.29365,0.0786 -0.3554,0.18556 -0.5519,0.95912 -0.1216,0.47907 -0.29996,0.93107 -0.39636,1.00407 -0.14717,0.11149 -0.0738,0.24666 0.4594,0.84439 0.59729,0.66969 0.67934,0.71959 1.38958,0.8475 v 5.1e-4 c 0.41516,0.0748 0.86175,0.11727 0.99219,0.0946 0.1305,-0.0227 0.60223,-0.0786 1.04851,-0.12402 l 0.81184,-0.0827 -0.0765,-0.48628 c -0.0636,-0.40476 -0.10867,-0.79651 -0.17467,-1.52497 -0.004,-0.0489 -0.30111,-0.0889 -0.65991,-0.0889 -0.46194,0 -0.65267,-0.0455 -0.65267,-0.15658 0,-0.10317 -0.28961,-0.20184 -0.84543,-0.28784 -0.9894,-0.1531 -1.10419,-0.23373 -0.94257,-0.65888 0.0709,-0.18662 0.0808,-0.30132 0.0181,-0.3545 z m 94.80714,2.8019 c -0.0275,0.0274 0.009,0.39024 0.0806,0.80615 1.22077,7.08335 1.25827,15.25284 0.10542,22.87871 -2.64683,17.50762 -11.14335,32.85198 -24.89874,44.96625 -6.17617,5.43927 -13.57315,9.92476 -21.70668,13.16198 -1.99104,0.79246 -5.77211,2.08106 -7.29568,2.48667 -3.7027,0.98586 -6.53907,1.60328 -8.95553,1.94924 -2.74507,0.39298 -3.65479,0.45236 -7.47293,0.48576 -6.09154,0.0534 -10.15161,0.4323 -14.76809,1.37769 -0.9786,0.2004 -1.9127,0.3901 -2.07584,0.4222 -0.27407,0.0538 -1.28503,0.32349 -2.43189,0.64854 -2.62707,0.74459 -6.5551,2.28163 -9.24802,3.61838 -3.98677,1.97907 -7.38845,4.42163 -10.78383,7.74423 -2.01267,1.96953 -3.7692,3.98934 -5.12114,5.88801 -1.33516,1.87503 -2.1422,3.24028 -1.92185,3.25148 0.0163,8.1e-4 0.53673,0.1842 1.15652,0.40773 0.61979,0.22352 1.20703,0.40731 1.30483,0.41031 0.0978,0.002 0.40031,-0.30167 0.67231,-0.67489 4.16568,-5.71563 10.89247,-11.03423 17.17983,-13.58367 2.10101,-0.85193 5.40102,-1.92715 7.17631,-2.33836 5.34691,-1.23846 8.9217,-1.59525 14.70918,-1.46761 5.14638,0.11348 9.40623,-0.29685 14.91589,-1.4366 3.43829,-0.71131 5.55916,-1.28527 9.23819,-2.50063 1.52577,-0.50402 1.93318,-0.65294 4.17546,-1.52497 7.06379,-2.74724 14.59435,-7.18628 20.71915,-12.21321 4.97494,-4.08314 9.92176,-9.25863 13.84928,-14.49007 7.24756,-9.65361 12.38371,-21.70286 14.25701,-33.44498 0.10407,-0.65241 0.21758,-1.34681 0.25218,-1.54255 0.0688,-0.39019 0.23325,-1.6949 0.41135,-3.26181 0.222,-1.95289 0.46793,-6.36936 0.4687,-8.42171 0.001,-2.69448 -0.29113,-7.01005 -0.65061,-9.6082 -0.19582,-1.41556 -0.4579,-2.80124 -0.5519,-2.92075 -0.0575,-0.073 -0.35716,-0.22433 -0.66611,-0.33641 -0.30903,-0.11202 -0.90199,-0.33471 -1.31775,-0.49506 -0.41567,-0.16038 -0.77823,-0.26935 -0.80563,-0.24185 z m -147.87108,0.008 c -0.0319,-0.032 -0.42498,0.0828 -0.87333,0.25476 -2.12534,0.81543 -1.97884,0.70212 -2.14096,1.65882 -0.90539,5.34058 -1.17,10.66093 -0.8077,16.24707 0.2119,3.26702 0.34655,4.61766 0.7152,7.1763 0.15305,1.06276 0.76972,4.37062 1.05782,5.67304 2.59501,11.73228 8.23591,23.20303 15.96336,32.46314 5.12098,6.1367 11.30958,11.75643 17.90486,16.25895 5.74258,3.92042 12.39303,7.15647 17.91415,8.71678 0.91771,0.25932 1.26937,0.23342 2.13527,-0.15864 0.35881,-0.16245 0.89641,-0.40567 1.19527,-0.54002 1.42958,-0.64286 2.82778,-1.12137 4.79454,-1.64073 0.65245,-0.17228 1.22841,-0.34947 1.27951,-0.39377 0.0511,-0.0443 -0.21598,-0.14701 -0.59324,-0.22841 -1.07002,-0.2309 -3.61912,-0.84433 -3.94808,-0.94982 -0.28587,-0.0917 -0.50538,-0.15579 -1.66088,-0.48575 -2.21782,-0.63331 -6.90945,-2.33002 -8.81497,-3.18792 -0.30562,-0.1376 -0.80941,-0.36148 -1.11931,-0.49765 -1.14199,-0.50176 -3.79967,-1.83418 -5.30304,-2.65875 -6.31532,-3.46377 -11.65001,-7.49402 -16.96434,-12.81627 -9.15814,-9.17176 -15.62484,-20.11613 -18.96163,-32.09107 -1.18202,-4.24197 -1.83632,-7.65537 -2.39675,-12.50414 -0.68965,-5.9674 -0.47457,-13.69761 0.54002,-19.43034 0.0786,-0.44394 0.11623,-0.83358 0.0842,-0.86558 z m 177.58968,2.4567 c -0.0161,0.005 -0.031,0.0148 -0.0455,0.0294 -0.0786,0.0794 -0.82597,2.05379 -1.66088,4.38785 l -1.51825,4.24367 -4.56355,0.0739 c -2.51006,0.0404 -4.56406,0.18244 -4.56406,0.31575 0,0.1333 1.40561,1.35649 3.12332,2.71818 1.71771,1.36167 3.28123,2.62211 3.47421,2.80138 0.28828,0.26778 0.134,1.06896 -0.86403,4.48913 -0.66812,2.28956 -1.21491,4.30155 -1.21491,4.47104 0,0.1695 0.063,0.30799 0.14004,0.30799 0.077,0 1.72143,-1.06609 3.65456,-2.36884 1.93312,-1.30272 3.64889,-2.4484 3.81268,-2.5461 0.16378,-0.0977 1.94066,0.91202 3.9486,2.24379 2.00789,1.33178 3.78751,2.44722 3.9548,2.47892 0.40601,0.077 0.30992,-0.40383 -0.91261,-4.55838 -0.57324,-1.94809 -1.04231,-3.72666 -1.04231,-3.95221 0,-0.22555 1.52503,-1.63172 3.38894,-3.12488 1.86391,-1.49318 3.4286,-2.82763 3.4773,-2.96519 0.0525,-0.1481 -1.75007,-0.25012 -4.41936,-0.25012 -3.2866,0 -4.58081,-0.0911 -4.77594,-0.33589 -0.14718,-0.18468 -0.81851,-1.94305 -1.4919,-3.90777 -1.21613,-3.54849 -1.65978,-4.62385 -1.90117,-4.55166 z m -207.323268,0.15141 c -0.23977,-0.007 -0.83804,1.48603 -2.63136,6.56239 l -0.73536,2.08152 h -4.64674 c -2.73848,0 -4.61016,0.1024 -4.55786,0.24908 0.0487,0.13687 1.61344,1.46695 3.4773,2.9559 1.86389,1.48896 3.38895,2.89983 3.38895,3.13521 0,0.23538 -0.47824,2.06576 -1.06299,4.06745 -0.58474,2.00169 -1.0635,3.86793 -1.0635,4.14703 0,0.63657 0.0343,0.61852 4.3062,-2.24482 1.79798,-1.20513 3.3922,-2.19099 3.54242,-2.19108 0.15018,-1.1e-4 1.924791,1.11677 3.943938,2.48253 2.01914,1.36574 3.74426,2.40976 3.83336,2.31976 0.089,-0.09 -0.34904,-1.94352 -0.97307,-4.11861 -0.62398,-2.17513 -1.15605,-4.16626 -1.18235,-4.42506 -0.0316,-0.31071 1.07396,-1.35996 3.25354,-3.08818 1.81564,-1.43964 3.3498,-2.76596 3.4091,-2.94711 0.0817,-0.24967 -1.00046,-0.34686 -4.47208,-0.40256 l -4.57957,-0.0739 -1.496547,-4.25142 c -0.82313,-2.33825 -1.612291,-4.25414 -1.753381,-4.25814 z m 87.708858,7.96075 c -0.30639,0 -0.4291,0.11212 -0.91105,0.83044 -0.30637,0.45666 -0.56079,0.94227 -0.56379,1.07901 -0.004,0.13667 -0.11193,0.34372 -0.24082,0.46043 -0.26858,0.24309 -0.21868,0.38626 0.18707,0.54054 0.37907,0.14399 0.3736,0.58301 -0.0114,0.94464 -0.39326,0.36945 -0.37656,0.43229 0.14832,0.55656 0.40146,0.0951 0.44663,0.1453 0.46663,0.51573 0.0122,0.22582 0.0585,0.58417 0.10284,0.79633 0.12887,0.61898 -0.17951,0.97824 -0.83923,0.97824 -0.50302,0 -0.53123,0.0177 -0.53123,0.33331 0,0.42806 -0.2188,0.70751 -0.59169,0.75551 -0.16248,0.021 -0.31165,0.12272 -0.33125,0.22583 -0.0266,0.14002 0.13328,0.22531 0.62942,0.33641 0.99361,0.22236 1.02556,0.60991 0.0641,0.7767 -0.69478,0.12056 -1.69612,0.55751 -1.5689,0.68471 0.0624,0.0625 0.77288,0.11399 1.57872,0.11472 1.36246,10e-4 2.19171,0.10324 2.76985,0.34003 h 5.2e-4 c 0.42884,0.17564 0.59093,0.0736 0.62993,-0.39532 0.0292,-0.35202 0.13335,-0.52188 0.50385,-0.81959 0.25707,-0.20655 0.46767,-0.44263 0.46767,-0.52503 0,-0.26091 -0.3607,-0.52245 -0.72037,-0.52245 -0.38701,0 -0.40353,-0.0288 -0.21652,-0.37827 0.0978,-0.18272 0.0926,-0.31607 -0.0212,-0.52865 -0.11735,-0.21827 -0.12038,-0.3163 -0.0129,-0.42375 0.20629,-0.20627 0.17295,-0.39126 -0.13901,-0.76584 -0.17922,-0.21518 -0.33278,-0.63245 -0.42788,-1.16531 -0.12185,-0.68268 -0.21282,-0.88529 -0.51108,-1.13946 -0.41848,-0.35679 -0.38031,-0.69919 0.078,-0.69919 0.19479,0 0.43156,-0.1641 0.71572,-0.49609 0.57806,-0.67524 0.55083,-0.78889 -0.1974,-0.83199 -0.75275,-0.0434 -0.87446,-0.29793 -0.38654,-0.80719 0.41203,-0.43013 0.35879,-0.77101 -0.12041,-0.77101 z m 82.07354,0.90331 c 0.36865,0.0466 0.30808,0.44967 0.30748,1.6769 -0.004,3.84454 -0.485,8.63821 -1.25315,12.48451 -0.24635,1.23388 -0.40754,1.91397 -0.87127,3.67729 -0.13331,0.507 -0.90776,2.7636 -1.12965,3.29179 -0.10287,0.24465 -0.26618,0.44493 -0.36328,0.44493 -0.14823,0 -0.17622,-0.28439 -0.17622,-1.78283 v -1.78284 l -0.4749,-0.60048 c -0.63376,-0.80177 -0.62308,-1.15244 0.10128,-3.31453 0.61088,-1.82362 0.55732,-1.47229 0.97462,-6.33863 0.12537,-1.46236 0.11902,-1.5772 -0.12144,-2.2164 l -0.25373,-0.67386 0.45062,-0.86817 c 0.42704,-0.82295 0.45333,-0.93857 0.50953,-2.2319 l 0.0594,-1.36426 1.00821,-0.20205 c 0.63581,-0.12732 1.0113,-0.22745 1.23248,-0.19947 z m 17.69402,0.55293 c -0.0363,0.0363 -0.0668,0.76445 -0.0677,1.61799 -0.006,5.93503 -1.37379,14.96151 -3.20911,21.18372 -0.20207,0.68503 -0.41042,1.40523 -0.46302,1.60094 -0.18487,0.68825 -1.0585,3.23894 -1.72909,5.04672 -2.6334,7.10037 -6.73969,14.75195 -10.91406,20.33778 -5.86947,7.85419 -13.1107,14.5961 -21.70566,20.20755 -2.54711,1.66293 -3.24835,2.08075 -6.51898,3.88607 -5.56308,3.07072 -12.69439,5.81455 -19.2164,7.39386 -2.29578,0.55596 -2.77177,0.65805 -4.4483,0.95498 -0.42405,0.0751 -1.01128,0.18221 -1.30483,0.23771 -0.98844,0.18684 -3.46574,0.51069 -5.39709,0.70538 -2.69263,0.27149 -5.47945,0.3657 -10.08259,0.3421 -5.69511,-0.0292 -7.57158,0.13174 -11.44685,0.98134 -2.90319,0.63649 -6.76134,1.90957 -6.76134,2.23087 0,0.13699 1.84844,0.56058 4.15169,0.95136 2.74497,0.46572 7.12463,0.92767 11.20965,1.18236 2.26389,0.14111 7.3344,0.1458 9.31157,0.009 3.85706,-0.26735 7.64771,-0.74689 10.75904,-1.36064 1.6324,-0.32204 1.68804,-0.33402 4.00905,-0.89607 13.32773,-3.22735 26.42491,-10.23128 37.36982,-19.98379 1.84597,-1.64491 6.31301,-6.15438 7.69358,-7.76697 1.40161,-1.63714 4.77973,-5.95581 6.08025,-7.77265 5.09707,-7.12041 9.34031,-16.01138 11.77293,-24.66981 0.20164,-0.71766 0.41552,-1.46516 0.47542,-1.66088 0.26807,-0.8761 1.03735,-4.20731 1.31465,-5.69371 0.90676,-4.86074 1.30117,-8.0421 1.54512,-12.45505 0.12951,-2.34579 0.13545,-5.53524 0.0103,-5.72369 -0.0398,-0.0599 -0.23266,-0.16647 -0.4284,-0.23667 -0.19574,-0.0702 -0.71309,-0.25996 -1.1498,-0.42168 -0.43661,-0.16167 -0.82369,-0.2641 -0.85989,-0.2279 z m -167.61871,0.004 c -0.0343,-0.0343 -0.59102,0.1295 -1.23714,0.3638 l -1.1746,0.42582 -0.0853,1.01079 c -0.1003,1.19454 0.11382,6.31365 0.36949,8.83873 0.34863,3.44368 1.10542,8.09558 1.7849,10.97246 0.51579,2.18379 0.97056,3.93169 1.37459,5.27875 2.45922,8.20023 5.84384,15.51052 10.24176,22.12216 1.30482,1.96158 1.98225,2.88566 4.79557,6.53966 6.88286,8.93978 17.02878,17.47187 27.61795,23.22493 1.35722,0.73736 4.07129,2.08282 6.31383,3.13005 0.3588,0.16756 0.70646,0.30761 0.77256,0.31161 0.0662,0.004 0.78688,-0.47881 1.60145,-1.07281 0.81466,-0.594 1.89474,-1.31934 2.40037,-1.61179 0.50563,-0.29246 0.91846,-0.56699 0.91778,-0.61029 -6.9e-4,-0.0432 -0.41447,-0.2292 -0.91933,-0.41342 -1.13644,-0.4147 -2.93289,-1.11413 -3.40857,-1.32705 -0.19573,-0.0876 -1.21031,-0.54101 -2.25413,-1.00769 -1.62498,-0.72648 -5.08709,-2.45589 -5.45651,-2.72541 -0.0652,-0.0476 -0.41221,-0.24632 -0.77102,-0.44184 -0.79705,-0.43423 -1.47105,-0.81628 -1.81642,-1.02939 -0.14265,-0.088 -0.84656,-0.52193 -1.56425,-0.96428 -4.01473,-2.47458 -8.28146,-5.68258 -12.099,-9.0966 -1.91586,-1.71341 -5.54687,-5.39429 -6.76703,-6.86005 -0.45969,-0.55231 -1.34488,-1.61806 -1.96732,-2.36833 -3.72948,-4.49506 -6.82132,-9.35182 -9.77822,-15.36082 -1.30447,-2.65091 -2.4409,-5.21465 -3.05459,-6.89002 -0.16531,-0.45131 -0.46829,-1.27427 -0.67283,-1.82883 -1.70244,-4.61563 -3.05151,-9.70507 -3.90364,-14.72261 -0.70519,-4.15244 -1.19837,-9.226 -1.19837,-12.3362 0,-0.81874 -0.0277,-1.51703 -0.062,-1.55133 z m 85.58702,0.97203 c -0.0653,0 -0.11886,0.0531 -0.11886,0.11834 0,0.0654 0.0536,0.11886 0.11886,0.11886 0.0654,0 0.11834,-0.0537 0.11834,-0.11886 0,-0.0653 -0.053,-0.11834 -0.11834,-0.11834 z m -21.5961,0.7891 -0.44131,0.42892 c -0.3577,0.34764 -0.48211,0.40546 -0.6563,0.30696 -0.29784,-0.16862 -0.51037,-0.0592 -0.7369,0.37878 -0.18489,0.35761 -0.1824,0.38455 0.0594,0.60979 0.28943,0.26961 0.26564,0.4767 -0.0651,0.5674 -0.33795,0.0926 -0.98414,0.50316 -1.04644,0.66508 -0.0297,0.0775 0.0252,0.25371 0.12195,0.39171 0.1588,0.22655 0.28857,0.25114 1.34669,0.25114 1.14927,0 1.17629,-0.007 1.40973,-0.33434 0.13826,-0.1941 0.25342,-0.57484 0.27492,-0.90899 0.0348,-0.54001 0.0624,-0.58363 0.45217,-0.71365 0.32218,-0.10739 0.42372,-0.21203 0.45372,-0.46561 0.0448,-0.38021 -0.15294,-0.6309 -0.74672,-0.94878 z m 19.11046,0.57826 c -0.1655,-0.10227 -0.36139,0.0285 -0.36173,0.24082 3.7e-4,0.21748 0.16823,0.2193 0.34726,0.004 0.095,-0.11439 0.0996,-0.19183 0.0145,-0.24443 z m -4.8519,2.09238 c -0.0884,0.0115 -0.1929,0.0553 -0.30592,0.13798 -0.17849,0.13053 -0.19185,0.20155 -0.078,0.41444 0.17316,0.32383 0.30615,0.32571 0.52916,0.007 0.23909,-0.3414 0.11997,-0.5942 -0.14521,-0.55966 z m 32.90394,3.11971 c 0.40926,-0.0324 0.77068,-0.0257 0.81183,0.0408 0.041,0.0663 0.10533,0.51198 0.14263,0.99064 l 0.0677,0.87023 -0.7798,0.6382 c -0.42908,0.35106 -0.77767,0.67181 -0.7767,0.71211 0.011,0.21325 1.32212,1.25825 2.4288,1.9358 0.0656,0.0402 0.32862,-0.0289 0.58446,-0.15348 0.27834,-0.13528 0.70729,-0.22418 1.06711,-0.22118 0.54974,0.005 0.65746,0.0553 1.25057,0.58653 l 0.64854,0.58084 -0.3824,0.45165 c -0.21035,0.24836 -0.51692,0.61844 -0.68161,0.82269 l -0.29973,0.37156 0.89607,1.44384 c 0.49279,0.79413 0.86988,1.48682 0.83768,1.53892 -0.0322,0.0521 -0.31377,0.18717 -0.6258,0.30024 -0.31201,0.113 -0.99423,0.36485 -1.51619,0.56017 h -5.2e-4 c -0.52186,0.19531 -1.03656,0.40156 -1.1436,0.45786 -0.26509,0.13934 -0.41048,2.5e-4 -1.27175,-1.21078 l -0.73329,-1.03043 0.23306,-0.86713 c 0.1282,-0.47711 0.19511,-0.90613 0.14831,-0.95343 -0.0468,-0.0472 -0.51792,-0.24254 -1.04697,-0.43357 -1.36039,-0.49121 -1.36614,-0.49527 -2.35851,-1.72909 l -0.89607,-1.11414 0.55397,-1.16582 c 0.30484,-0.64105 0.76026,-1.60677 1.01183,-2.14613 0.31358,-0.67225 0.5437,-1.0135 0.73225,-1.0852 0.23186,-0.0882 0.68887,-0.15935 1.09813,-0.19172 z m 27.55439,10.78539 c 0.0543,0.0335 0.62292,0.82887 1.26349,1.76733 0.85391,1.25114 1.29431,1.78629 1.65106,2.00556 1.68515,1.03582 3.39539,1.99316 3.56154,1.99316 0.38215,0 0.31054,0.3539 -0.41083,2.03295 -3.34116,7.77723 -7.96603,14.58562 -14.05185,20.68556 -5.17349,5.18552 -11.21182,9.56802 -17.49609,12.69794 -0.94576,0.47108 -2.06284,0.99549 -2.48202,1.1653 -0.41877,0.16953 -0.81899,0.30685 -0.88935,0.30386 -0.17368,-0.007 -1.01751,-0.76178 -1.01751,-0.91054 0,-0.0656 2.05414,-1.97012 4.56458,-4.2323 l 4.56406,-4.11293 1.44177,-1.98282 c 1.08301,-1.48912 1.63309,-2.38099 2.20969,-3.58376 l 0.76791,-1.60146 -0.12713,-0.69763 c -0.0698,-0.38362 -0.14858,-0.71941 -0.17518,-0.74621 -0.0428,-0.0429 -3.86179,2.53781 -5.84719,3.95118 l -0.72657,0.51728 h -1.19424 -1.19424 l -0.0362,-0.56275 -0.0362,-0.56224 -0.59325,-0.0858 c -0.32622,-0.0472 -1.12679,-0.14344 -1.77922,-0.21394 -0.65246,-0.0706 -1.27375,-0.15434 -1.38079,-0.18604 -0.10697,-0.0317 -0.58254,-0.49639 -1.05678,-1.0325 -0.81091,-0.91659 -0.90553,-0.98509 -1.58492,-1.15238 l -0.72192,-0.17828 -0.38861,-1.00821 c -0.21369,-0.55453 -0.43612,-1.1205 -0.49402,-1.2578 -0.0578,-0.13726 -0.45326,-0.45324 -0.87902,-0.70229 -0.65878,-0.38537 -0.80923,-0.53732 -1.01027,-1.02112 -0.18794,-0.45221 -0.40735,-0.69312 -1.07074,-1.17719 -0.66579,-0.48574 -1.10047,-0.96552 -2.15594,-2.3766 -1.25623,-1.67961 -1.47014,-2.1239 -1.02164,-2.1239 0.0902,0 0.51997,0.26908 0.95498,0.59841 0.43498,0.32929 0.84,0.56853 0.9002,0.53123 0.0602,-0.0372 0.14575,-0.3069 0.18965,-0.59944 0.0577,-0.38505 0.17668,-0.61387 0.43099,-0.82786 0.54269,-0.4567 0.60004,-0.39345 0.51004,0.56586 l -0.0811,0.86144 1.58337,1.13792 c 1.37715,0.9896 1.58752,1.18439 1.61902,1.49965 0.035,0.34821 0.0643,0.36568 0.7338,0.44338 0.38342,0.0445 0.7729,0.14289 0.8661,0.21859 0.4054,0.32918 0.90038,1.24536 0.93638,1.73375 l 0.0372,0.50849 2.54559,1.39268 2.54506,1.39268 0.74827,1.2914 c 0.4114,0.71034 0.79873,1.30863 0.86093,1.32963 0.1069,0.0362 8.3268,-6.58735 8.62377,-6.94893 0.1036,-0.12655 0.10663,-0.24463 0.0103,-0.45578 -0.12023,-0.26391 -0.0604,-0.34999 0.80822,-1.15446 0.51613,-0.47812 1.13872,-1.04384 1.38338,-1.25728 0.36762,-0.3207 0.44493,-0.46644 0.44493,-0.83819 0,-0.38234 0.14276,-0.63124 0.9493,-1.66037 0.52188,-0.66597 0.94878,-1.22158 0.94878,-1.23558 0,-0.0136 -0.11187,-0.25543 -0.24805,-0.53744 l -0.24753,-0.51263 0.67955,-1.58905 c 0.37368,-0.87375 0.65498,-1.61257 0.62528,-1.64227 -0.0297,-0.0297 -0.3709,-0.006 -0.75809,0.0532 -0.3871,0.0592 -1.15637,0.16967 -1.70946,0.24547 -1.12156,0.15363 -0.96591,0.22289 -1.75648,-0.7829 -0.14928,-0.18997 -0.29878,-0.29165 -0.33228,-0.22635 -0.0333,0.0652 -0.33973,0.80958 -0.68109,1.65417 l -0.62115,1.5353 -1.04645,0.47543 -1.04697,0.47542 -0.53175,-0.61753 c -0.29236,-0.33938 -0.5839,-0.61702 -0.6475,-0.61702 -0.0635,0 -0.25028,0.16032 -0.41497,0.35605 -0.16467,0.19572 -0.36333,0.35605 -0.44183,0.35605 -0.0785,0 -0.37845,-0.24021 -0.66662,-0.53382 -0.46749,-0.4763 -0.58215,-0.53491 -1.06299,-0.53588 -0.64516,-0.002 -0.61634,0.0164 -1.4304,-0.93018 l -0.64854,-0.75396 0.47387,-0.40876 c 1.20774,-1.0422 1.17872,-1.02886 1.83348,-0.87178 0.32656,0.0783 0.95498,0.37656 1.3963,0.66249 0.44125,0.28588 0.91032,0.52148 1.04231,0.52245 0.13192,10e-4 0.76575,-0.13093 1.4087,-0.29404 0.64297,-0.16316 1.18561,-0.29662 1.20561,-0.29662 0.0202,0 0.36731,-0.42684 0.77101,-0.94878 l 0.73381,-0.94929 h 0.64389 c 0.62356,0 0.64896,0.0133 0.817,0.41547 0.0954,0.22834 0.20005,0.41497 0.23255,0.41497 0.25611,0 3.61208,-2.62275 5.3883,-4.21112 l 2.1885,-1.95698 h 1.03404 c 0.93772,0 1.11508,-0.039 1.90066,-0.41548 1.2429,-0.59562 1.30001,-0.57812 0.99012,0.30024 -0.0986,0.27935 -0.16304,0.52445 -0.14314,0.54415 0.0197,0.0198 0.35394,-0.0569 0.74259,-0.17053 0.64492,-0.18845 0.72993,-0.25327 0.96893,-0.73691 0.14409,-0.29152 0.26365,-0.64653 0.26665,-0.7891 0.007,-0.37012 0.224,-0.89313 0.34055,-0.82113 z m -64.75264,2.44429 c -0.19248,0 -0.23048,0.0844 -0.23048,0.51418 0,0.28269 0.0355,0.54985 0.0791,0.59325 0.19788,0.19794 0.38134,0.04 0.45424,-0.39119 0.0918,-0.54388 0.0191,-0.71624 -0.30283,-0.71624 z m 0.0289,2.03812 c -0.62006,-0.0595 -0.7338,0.12012 -0.7338,1.15962 0,0.50306 0.0355,0.95034 0.0791,0.99374 0.10407,0.10396 0.13268,0.10102 0.40256,-0.0434 0.36992,-0.19795 0.72199,-1.01252 0.68109,-1.57562 -0.0339,-0.46657 -0.0592,-0.49883 -0.42891,-0.53433 z m -5.83737,0.0362 c -0.16811,-0.10391 -0.82734,0.2041 -0.82734,0.38654 0,0.1559 0.4396,0.20043 0.76119,0.077 0.21167,-0.0812 0.24992,-0.34991 0.0661,-0.46354 z m 30.78675,5.05034 c -0.0632,-0.0488 -0.23736,0.004 -0.47594,0.19482 -0.22037,0.17587 -0.3743,0.36215 -0.3421,0.41445 0.10767,0.1742 0.35674,0.098 0.62994,-0.19276 0.20398,-0.21712 0.25133,-0.36768 0.1881,-0.41651 z m -105.52431,13.57023 c -0.15797,-0.0532 -0.67468,1.02567 -1.14825,2.39727 -0.4736,1.3716 -1.15942,3.30946 -1.52445,4.30672 l -0.66353,1.81332 h -4.47983 c -2.545397,0 -4.547187,0.11012 -4.635887,0.25528 -0.0859,0.14049 1.40188,1.5004 3.306257,3.02204 1.90435,1.52161 3.46259,2.92939 3.46284,3.12849 3.6e-4,0.28397 -1.44048,5.44097 -2.28203,8.16695 -0.0799,0.25855 -0.013,0.47025 0.14882,0.47025 0.16189,0 1.91939,-1.08827 3.90519,-2.41794 1.98582,-1.32971 3.72525,-2.41742 3.8654,-2.41742 0.14015,0 1.85642,1.08771 3.81372,2.41742 1.95729,1.32967 3.68145,2.41794 3.83181,2.41794 0.4027,0 0.3543,-0.28669 -0.55708,-3.29902 -1.58408,-5.23598 -1.60446,-5.34096 -1.1498,-5.84874 0.22366,-0.24975 1.77642,-1.52751 3.45096,-2.8391 1.67453,-1.31164 3.04546,-2.53556 3.04632,-2.72025 0.001,-0.25571 -1.09248,-0.33585 -4.5837,-0.33641 l -4.58473,-10e-4 -1.46709,-4.20956 c -0.80704,-2.31526 -1.59698,-4.253 -1.75494,-4.3062 z m 181.27783,0 c -0.16949,-0.0561 -0.91171,1.69436 -1.75648,4.1429 l -1.46296,4.24005 -4.48293,0.0739 c -2.46572,0.0407 -4.58582,0.17802 -4.71134,0.30489 -0.12712,0.12846 1.31236,1.45391 3.24941,2.99207 1.91272,1.51882 3.47731,2.95604 3.47731,3.19412 0,0.23811 -0.47667,2.06172 -1.05937,4.05246 -0.58268,1.99073 -1.06098,3.89365 -1.06298,4.22869 -0.003,0.54231 0.39135,0.34217 3.59719,-1.82625 1.98054,-1.33965 3.77882,-2.50469 3.99614,-2.58899 0.23414,-0.0908 1.7718,0.78278 3.77496,2.14509 3.72817,2.5354 4.31265,2.84709 4.30465,2.29443 -0.003,-0.20049 -0.53636,-2.17141 -1.18546,-4.37957 -0.81289,-2.76541 -1.09747,-4.11565 -0.91467,-4.33824 0.14594,-0.17773 1.75911,-1.50416 3.58479,-2.94814 1.82576,-1.44399 3.22352,-2.72262 3.10627,-2.84117 -0.11731,-0.1185 -2.24246,-0.24879 -4.7227,-0.28939 l -4.50929,-0.0739 -1.46451,-4.1429 c -0.80542,-2.2786 -1.5965,-4.18655 -1.75803,-4.24005 z m -40.44043,37.9274 c -0.0305,0.004 -0.0594,0.0245 -0.0894,0.0548 -0.17667,0.17858 -3.1657,8.30837 -3.1657,8.61033 0,0.0381 -2.09308,0.0692 -4.65139,0.0692 -2.64246,0 -4.6514,0.1066 -4.6514,0.2465 0,0.13545 1.55464,1.47508 3.45509,2.97708 1.90046,1.50203 3.4556,2.89852 3.4556,3.10369 0,0.29354 -1.50677,5.73496 -2.28306,8.24549 -0.08,0.25856 -0.0142,0.47025 0.14572,0.47025 0.15987,0 1.89907,-1.08774 3.86488,-2.41742 1.96582,-1.3297 3.72264,-2.41794 3.90416,-2.41794 0.18157,0 1.98043,1.10658 3.99769,2.45876 2.01721,1.35221 3.74559,2.3801 3.84059,2.2841 0.095,-0.096 -0.33446,-1.95812 -0.95395,-4.13773 -0.61948,-2.17959 -1.17656,-4.14653 -1.23816,-4.37131 -0.0743,-0.27117 1.04769,-1.31088 3.33313,-3.08922 1.89467,-1.47426 3.44853,-2.82896 3.45353,-3.01015 0.007,-0.24504 -1.16428,-0.34847 -4.57026,-0.40307 l -4.57905,-0.0734 -1.13533,-3.22358 c -1.60746,-4.56471 -1.91922,-5.4009 -2.13269,-5.37642 z m -103.72855,0.27285 c -0.18049,0 -0.98583,1.88548 -1.80661,4.23075 l -1.48053,4.23075 h -4.60178 c -2.82992,0 -4.60127,0.10154 -4.60127,0.26355 0,0.1449 1.33467,1.32335 2.96622,2.61897 1.63159,1.29558 3.2108,2.55219 3.50935,2.79207 l 0.54312,0.43615 -0.75499,2.65307 c -0.41513,1.45917 -0.97766,3.36768 -1.25006,4.2416 -0.27242,0.87393 -0.49506,1.68997 -0.49506,1.81333 0,0.47316 0.6039,0.14948 4.09071,-2.19315 1.97916,-1.3297 3.72063,-2.41794 3.87005,-2.41794 0.14941,0 1.82941,1.03193 3.7331,2.29288 3.61926,2.39736 4.25352,2.75053 4.25452,2.36988 4.4e-4,-0.12665 -0.55979,-2.13866 -1.24488,-4.47104 l -1.2454,-4.24057 0.9927,-0.82682 c 0.54598,-0.45484 2.08324,-1.68934 3.41633,-2.7435 1.33309,-1.05414 2.47535,-2.07473 2.53835,-2.26757 0.0919,-0.28059 -0.79385,-0.33985 -4.43746,-0.29765 -2.50381,0.029 -4.59646,0.006 -4.65036,-0.0522 -0.0539,-0.0577 -0.7559,-1.97895 -1.5596,-4.26899 -0.80824,-2.30294 -1.60634,-4.16357 -1.78645,-4.16357 z m 86.07227,6.35104 -0.82269,0.30489 c -1.66781,0.61798 -2.61104,0.97226 -2.95796,1.11208 l -0.35554,0.14366 0.29663,0.22014 c 0.16306,0.12094 0.73222,0.52883 1.26504,0.90692 3.07393,2.18102 6.114,5.13376 8.86147,8.60568 0.50332,0.63612 0.95311,1.15651 0.99891,1.15651 0.15471,0 2.21717,-0.71471 2.39675,-0.83044 0.15384,-0.0991 0.13939,-0.1831 -0.10697,-0.62063 -1.15286,-2.04745 -3.23877,-4.78956 -5.34696,-7.02851 -1.02272,-1.0861 -3.29169,-3.25544 -3.85093,-3.68195 z m -34.16071,11.31507 c -0.15717,-0.053 -0.66155,0.96695 -1.12086,2.26653 -0.45929,1.29959 -1.14646,3.2397 -1.52704,4.31085 l -0.69195,1.94716 h -4.46743 c -2.60829,0 -4.53339,0.1089 -4.62659,0.26149 -0.0879,0.14372 1.37009,1.48528 3.24012,2.98121 1.87008,1.49588 3.4363,2.87608 3.4804,3.067 0.0442,0.19091 -0.41063,2.02232 -1.01079,4.07003 -0.60017,2.04772 -1.15273,3.93448 -1.22783,4.19303 -0.25008,0.86007 0.51917,0.49954 4.15168,-1.94717 1.97349,-1.32927 3.6811,-2.41724 3.79461,-2.41742 0.11351,-2.1e-4 1.81483,1.08775 3.78064,2.41742 3.4236,2.31576 4.12017,2.68667 4.12017,2.19521 0,-0.12229 -0.54746,-2.06725 -1.21595,-4.32221 -1.12582,-3.79739 -1.18352,-4.13525 -0.78652,-4.57853 0.23573,-0.26324 1.79859,-1.55177 3.47318,-2.86339 1.67453,-1.31161 3.04494,-2.53611 3.04581,-2.72077 0.001,-0.25577 -1.09249,-0.3359 -4.58732,-0.3359 h -4.58887 l -1.47484,-4.21421 c -0.81118,-2.31777 -1.60344,-4.25743 -1.76062,-4.31033 z"
       inkscape:export-filename="Super Earth logo.svg"
       inkscape:export-xdpi="96"
       inkscape:export-ydpi="96" /></g></svg>
